<svg width="30" height="30" viewBox="0 0 30 30" fill="none" xmlns="http://www.w3.org/2000/svg">
<g clip-path="url(#clip0_8502_1875)">
<path d="M27.8598 10.3655C27.7385 9.45351 27.7214 7.88278 28.5685 7.35536C28.5836 7.34569 28.5949 7.33172 28.6081 7.31973C29.3006 7.09823 29.7799 6.78737 29.4037 6.36909L19.188 3.29102L2.64658 5.5908C2.64658 5.5908 0.752379 5.86154 0.921593 8.80442C1.01345 10.4061 1.51581 11.1927 1.95514 11.5799L0.59776 11.9889C0.221014 12.4072 0.700183 12.7182 1.39279 12.9393C1.40595 12.9517 1.41706 12.9655 1.43246 12.9752C2.27897 13.5031 2.26268 15.0736 2.14091 15.9858C-0.900181 16.8493 0.191469 17.1307 0.191469 17.1307L0.858563 17.2921C0.389332 17.7161 -0.0766764 18.5202 0.0106162 20.0452C0.179919 22.9875 1.73579 23.1906 1.73579 23.1906L12.5604 26.709L28.8989 22.7515C28.8989 22.7515 29.9909 22.4697 26.949 21.6061C26.8267 20.6954 26.8097 19.125 27.6582 18.5958C27.6738 18.5864 27.6851 18.5721 27.6978 18.5603C28.3904 18.3388 28.8692 18.0282 28.4929 17.61L27.7827 17.3955C28.2563 17.1099 28.9678 16.3635 29.0792 14.4246C29.1561 13.091 28.8082 12.3099 28.4055 11.8501L29.8092 11.5104C29.8093 11.5109 30.9013 11.2291 27.8598 10.3655ZM14.1936 10.3278L16.9412 9.76311L26.2262 7.85503L27.6096 7.5705C27.1676 8.3795 27.1861 9.48664 27.2592 10.1982C27.2753 10.3592 27.2937 10.5062 27.3116 10.618L25.7975 10.9944L14.0782 13.9098L14.1936 10.3278ZM2.39142 13.1912L3.77458 13.4758L12.6916 15.3088L13.4706 15.4684L15.8067 15.9485L15.922 19.5307L3.87701 16.534L2.68956 16.2389C2.70702 16.127 2.72546 15.9801 2.7422 15.8187C2.8149 15.1077 2.83379 14.0003 2.39142 13.1912ZM1.85406 8.66278C1.83731 7.88001 1.9768 7.31391 2.25874 7.02615C2.43816 6.84244 2.6499 6.80421 2.79512 6.80421C2.87184 6.80421 2.92708 6.81486 2.93084 6.81486L10.0581 9.13845L13.614 10.2978L13.4974 13.9049L3.52166 11.1081L2.99522 10.9607C2.97588 10.9552 2.94965 10.9515 2.92941 10.9506C2.88832 10.9476 1.90205 10.8568 1.85406 8.66278ZM12.5862 25.1462L2.08433 22.2019C2.0649 22.1963 2.03894 22.1925 2.0187 22.1915C1.97689 22.1887 0.990173 22.098 0.942453 19.9045C0.925443 19.1208 1.06565 18.5552 1.34704 18.2672C1.52691 18.0835 1.73874 18.0453 1.88369 18.0453C1.9606 18.0453 2.01566 18.0556 2.01969 18.0556L12.7022 21.539L12.5862 25.1462ZM26.3475 21.439C26.3641 21.6005 26.3826 21.7473 26.4005 21.8592L13.1667 25.1513L13.2824 21.5692L16.1117 20.9875L16.5295 21.0886L18.0956 20.5796L25.3145 19.0962L26.6984 18.8115C26.256 19.6204 26.2743 20.728 26.3475 21.439ZM27.0765 16.5708C27.0524 16.5713 27.0283 16.5745 27.0057 16.5817L26.0076 16.8611L16.5041 19.5259L16.3879 15.9188L19.5059 14.9018L27.0557 12.4396C27.0567 12.4392 27.4529 12.3512 27.7437 12.6469C28.0252 12.9347 28.1648 13.5008 28.1484 14.2835C28.0991 16.4769 27.1124 16.568 27.0765 16.5708Z" fill="white"/>
</g>
<defs>
<clipPath id="clip0_8502_1875">
<rect width="30" height="30" fill="white"/>
</clipPath>
</defs>
</svg>
