<svg width="26" height="30" viewBox="0 0 26 30" fill="none" xmlns="http://www.w3.org/2000/svg">
<path d="M8.36291 12.874V23.9135C8.36318 24.1526 8.28906 24.3859 8.15082 24.5811C8.01258 24.7762 7.81707 24.9236 7.59137 25.0026C6.93764 25.2325 6.14877 25.3538 5.30908 25.3538C2.89398 25.3538 0.296379 24.3628 0.296379 22.1868V8.06109C0.242094 7.09089 0.580509 5.37687 2.2056 4.4494C2.95981 4.01859 6.92031 1.47181 8.90922 0.185141C9.0838 0.073157 9.28526 0.0101458 9.49253 0.00269939C9.69981 -0.00474698 9.90527 0.0436452 10.0874 0.142813C10.2696 0.241981 10.4218 0.388281 10.528 0.566406C10.6343 0.744532 10.6907 0.947937 10.6914 1.15534V2.82778C10.6915 3.09888 10.5962 3.36136 10.4223 3.56929C10.2483 3.77723 10.0068 3.91735 9.73995 3.96513C9.47311 4.0129 9.19795 3.9653 8.96267 3.83064C8.72739 3.69598 8.54697 3.48285 8.453 3.22857C6.65582 4.38357 4.00855 6.07911 3.35136 6.45449C2.76 6.7929 2.63179 7.41429 2.60638 7.75155C2.60638 8.13039 2.68839 8.42838 2.83623 8.59124C3.24625 9.03822 4.61262 8.75987 6.10372 7.86474C7.53593 7.00542 14.5999 2.30226 14.6704 2.2549C14.8444 2.1388 15.0467 2.07213 15.2556 2.06204C15.4646 2.05194 15.6724 2.09878 15.8568 2.19757C16.0412 2.29636 16.1953 2.44338 16.3027 2.62293C16.4101 2.80248 16.4666 3.00782 16.4664 3.21702V3.34869C16.4664 3.73446 16.2735 4.09482 15.9536 4.30965C15.9536 4.30965 11.0494 7.58292 10.6152 7.86128C8.95311 8.93081 8.36291 10.2429 8.36291 12.874ZM25.7064 7.29995V22.2942C25.7063 22.4895 25.6566 22.6815 25.5621 22.8524C25.4675 23.0233 25.3312 23.1674 25.1659 23.2713C25.1659 23.2713 18.4322 28.5011 17.0658 29.3316C16.3474 29.7693 15.4327 30.0003 14.422 30.0003C12.0208 30.0003 9.53639 28.701 9.53639 26.5284V12.196C9.53639 12.1914 9.53985 12.1868 9.53985 12.181C9.56295 11.3355 9.76046 10.1285 11.3324 8.96892C12.2749 8.27361 17.8882 4.44594 18.1261 4.28424C18.2996 4.1656 18.5022 4.09658 18.712 4.08463C18.9218 4.07268 19.1309 4.11827 19.3167 4.21646C19.5025 4.31465 19.6579 4.46172 19.7663 4.6418C19.8746 4.82187 19.9317 5.02812 19.9314 5.23827V6.91071C19.9314 7.17694 19.8395 7.43501 19.6711 7.64124C19.5027 7.84747 19.2683 7.98921 19.0074 8.04246C18.7466 8.09572 18.4754 8.05723 18.2396 7.9335C18.0039 7.80977 17.8181 7.60841 17.7138 7.36347C15.9224 8.58893 13.2925 10.3942 12.7034 10.8273C11.9596 11.3771 11.8602 11.7398 11.8475 12.2052C11.8499 12.5506 11.9434 12.8139 12.1328 12.9872C12.7219 13.5266 14.3077 13.3002 15.8716 12.3623C17.0289 11.667 22.0162 7.81623 23.8388 6.39096C24.1887 6.12069 24.66 6.07103 25.0573 6.26391C25.4546 6.4568 25.7064 6.85758 25.7064 7.29995ZM23.3964 12.4466L17.6214 16.9269V19.2369L23.3964 14.7566V12.4466Z" fill="white"/>
</svg>
