<svg width="28" height="28" viewBox="0 0 28 28" fill="none" xmlns="http://www.w3.org/2000/svg">
<path d="M8.50033 20.3327V11.166H19.5003V13.9985C19.8028 13.9527 20.1053 13.916 20.417 13.916C20.7287 13.916 21.0312 13.9527 21.3337 13.9985V11.166C21.3337 10.6798 21.1405 10.2135 20.7967 9.86965C20.4529 9.52584 19.9866 9.33268 19.5003 9.33268H18.5837V7.49935C18.5837 4.96935 16.5303 2.91602 14.0003 2.91602C11.4703 2.91602 9.41699 4.96935 9.41699 7.49935V9.33268H8.50033C7.48283 9.33268 6.66699 10.1485 6.66699 11.166V20.3327C6.66699 20.8189 6.86015 21.2852 7.20396 21.629C7.54778 21.9729 8.0141 22.166 8.50033 22.166H15.6595C15.3387 21.6068 15.1187 20.9927 14.9995 20.3327H8.50033ZM11.2503 7.49935C11.2503 5.97768 12.4787 4.74935 14.0003 4.74935C15.522 4.74935 16.7503 5.97768 16.7503 7.49935V9.33268H11.2503V7.49935ZM15.8337 15.7493C15.8337 16.7668 15.0178 17.5827 14.0003 17.5827C13.5141 17.5827 13.0478 17.3895 12.704 17.0457C12.3601 16.7019 12.167 16.2356 12.167 15.7493C12.167 14.7318 12.9828 13.916 14.0003 13.916C14.4866 13.916 14.9529 14.1092 15.2967 14.453C15.6405 14.7968 15.8337 15.2631 15.8337 15.7493ZM24.0837 18.4993V20.3327H21.3337V23.0827H19.5003V20.3327H16.7503V18.4993H19.5003V15.7493H21.3337V18.4993H24.0837Z" fill="#094E85"/>
</svg>
