<svg width="16" height="16" viewBox="0 0 16 16" fill="none" xmlns="http://www.w3.org/2000/svg">
<path d="M8.48175 2.67377L8.48245 2.67518L9.65459 5.01946C9.80201 5.31875 10.0419 5.56449 10.2796 5.73993C10.5187 5.91633 10.8236 6.07184 11.15 6.12623L11.1504 6.12629L13.2766 6.47956C13.2768 6.47958 13.2769 6.4796 13.277 6.47962C13.8273 6.57143 13.9096 6.77065 13.9134 6.78261C13.9167 6.79288 13.9676 7.00079 13.5714 7.39429L13.5696 7.3961L11.9163 9.04943C11.6639 9.30183 11.5024 9.63044 11.4147 9.93669C11.327 10.2433 11.2908 10.6056 11.3681 10.9505L11.3681 10.9505L11.3692 10.9554L11.8424 13.0015C11.8425 13.0017 11.8425 13.0018 11.8425 13.0019C11.8425 13.002 11.8425 13.002 11.8426 13.0021C11.921 13.3425 11.921 13.5765 11.8948 13.718C11.879 13.8036 11.8575 13.8398 11.8485 13.8516C11.8345 13.8567 11.7928 13.8664 11.7047 13.8553C11.5607 13.8371 11.3367 13.7657 11.0353 13.5877C11.0353 13.5877 11.0353 13.5877 11.0353 13.5877C11.0351 13.5876 11.0349 13.5875 11.0347 13.5873L9.04229 12.4079C9.04219 12.4078 9.04209 12.4078 9.042 12.4077C8.71811 12.2159 8.33897 12.1431 8.00244 12.1431C7.66512 12.1431 7.28706 12.2162 6.96277 12.4048L6.96276 12.4048L6.95788 12.4077L4.96455 13.5877L4.96384 13.5881C4.66471 13.7656 4.44217 13.8363 4.29927 13.8542C4.20858 13.8655 4.1669 13.8545 4.15395 13.8494C4.14516 13.8387 4.12232 13.8026 4.10571 13.7137C4.07938 13.5729 4.07908 13.3402 4.1573 13.0022L4.15732 13.0021L4.63065 10.9554L4.63067 10.9554L4.63178 10.9505C4.70908 10.6056 4.67291 10.2433 4.58515 9.93669C4.49748 9.63044 4.336 9.30183 4.0836 9.04944L3.63363 9.49941L4.0836 9.04943L2.43027 7.3961C2.03661 7.00244 2.08555 6.7933 2.0894 6.78124C2.09302 6.7699 2.17331 6.5713 2.72286 6.47962C2.72299 6.4796 2.72311 6.47958 2.72324 6.47956L4.84953 6.12629L4.84953 6.1263L4.85217 6.12585C5.17594 6.07087 5.47894 5.91452 5.71581 5.73889C5.95177 5.56393 6.19129 5.31854 6.3386 5.0195L7.51006 2.67658C7.51016 2.67638 7.51025 2.67619 7.51035 2.676C7.77602 2.14774 7.99604 2.13477 7.99911 2.13477C8.00082 2.13477 8.21929 2.14608 8.48175 2.67377ZM11.8443 13.8562C11.8442 13.8561 11.845 13.8552 11.8468 13.8537C11.8453 13.8555 11.8443 13.8563 11.8443 13.8562ZM11.8511 13.8505C11.853 13.8493 11.8541 13.8489 11.8541 13.849C11.8542 13.849 11.8533 13.8496 11.8511 13.8505ZM4.14931 13.8471C4.14936 13.847 4.15037 13.8475 4.15216 13.8487C4.15014 13.8478 4.14925 13.8472 4.14931 13.8471ZM4.15519 13.8509C4.1569 13.8523 4.15765 13.8531 4.15759 13.8532C4.15754 13.8532 4.15668 13.8526 4.15519 13.8509Z" fill="#FABF35" stroke="#FABF35" stroke-width="1.5" stroke-linecap="round" stroke-linejoin="round"/>
</svg>
