<svg width="36" height="36" viewBox="0 0 36 36" fill="none" xmlns="http://www.w3.org/2000/svg">
<path d="M18.1061 5.72206L18 5.61599L17.8939 5.72206L13.2654 10.3506H6.9225C6.19515 10.3506 5.58023 10.5963 5.08843 11.0891C4.59563 11.5809 4.35 12.1958 4.35 12.9231V29.0781C4.35 29.8055 4.59566 30.4209 5.08843 30.9137C5.58027 31.4055 6.1952 31.6506 6.9225 31.6506H29.0775C29.8049 31.6506 30.4203 31.405 30.9131 30.9122C31.4049 30.4204 31.65 29.8054 31.65 29.0781V12.9231C31.65 12.1957 31.4043 11.5808 30.9115 11.0889C30.4197 10.5962 29.8048 10.3506 29.0775 10.3506H22.7346L18.1061 5.72206ZM11.1307 26.1598L10.9473 26.4006H11.25H24.981H25.281L25.101 26.1606L20.8605 20.5056L20.7436 20.3498L20.6228 20.5026L16.8153 25.3191L14.3086 22.2895L14.1881 22.1439L14.0737 22.2943L11.1307 26.1598ZM24.0888 19.1235L24.0889 19.1237C24.4401 19.4749 24.8752 19.6506 25.3845 19.6506C25.8938 19.6506 26.3289 19.4749 26.6801 19.1237C27.0313 18.7725 27.207 18.3374 27.207 17.8281C27.207 17.318 27.0313 16.8823 26.6801 16.5311C26.3289 16.1799 25.8938 16.0041 25.3845 16.0041C24.8752 16.0041 24.4401 16.1799 24.0889 16.5311C23.7377 16.8823 23.562 17.318 23.562 17.8281C23.562 18.3365 23.7378 18.7715 24.0888 19.1235ZM29.0775 29.8506H6.9225C6.73944 29.8506 6.56443 29.7759 6.39409 29.6066C6.22471 29.4362 6.15 29.2612 6.15 29.0781V12.9231C6.15 12.7401 6.2247 12.5651 6.39405 12.3947C6.5644 12.2253 6.73943 12.1506 6.9225 12.1506H29.0775C29.2606 12.1506 29.4356 12.2253 29.6059 12.3947C29.7753 12.565 29.85 12.7401 29.85 12.9231V29.0781C29.85 29.2612 29.7753 29.4362 29.6059 29.6066C29.4356 29.7759 29.2606 29.8506 29.0775 29.8506ZM20.4309 10.3506H15.5691L18 7.91976L20.4309 10.3506Z" fill="#094E85" stroke="#094E85" stroke-width="0.3"/>
</svg>
