<svg width="16" height="20" viewBox="0 0 16 20" fill="none" xmlns="http://www.w3.org/2000/svg">
<path d="M11.3015 19.3102C12.0991 19.3102 12.8641 18.9933 13.4281 18.4293C13.9921 17.8653 14.309 17.1003 14.309 16.3027V6.46357C14.309 6.2795 14.2359 6.10297 14.1057 5.97281C13.9755 5.84265 13.799 5.76953 13.6149 5.76953H2.38544C2.20137 5.76953 2.02484 5.84265 1.89468 5.97281C1.76453 6.10297 1.69141 6.2795 1.69141 6.46357V16.3027C1.69141 17.1003 2.00827 17.8653 2.57228 18.4293C3.13629 18.9933 3.90126 19.3102 4.6989 19.3102H11.3015ZM3.07948 16.3027V7.1576H12.9209V16.3027C12.9209 16.7322 12.7503 17.1441 12.4466 17.4478C12.1429 17.7515 11.731 17.9221 11.3015 17.9221H4.6989C4.2694 17.9221 3.85749 17.7515 3.5538 17.4478C3.2501 17.1441 3.07948 16.7322 3.07948 16.3027Z" fill="black" fill-opacity="0.2"/>
<path d="M11.0768 2.30692C11.0768 1.87742 10.9062 1.46552 10.6025 1.16182C10.2988 0.858117 9.8869 0.6875 9.4574 0.6875H6.54245C6.11295 0.6875 5.70105 0.858117 5.39735 1.16182C5.09365 1.46552 4.92303 1.87742 4.92303 2.30692V2.91767H0V4.30574H15.9998V2.91767H11.0768V2.30692ZM6.3111 2.91767V2.30692C6.3111 2.24556 6.33548 2.18672 6.37886 2.14333C6.42225 2.09995 6.48109 2.07557 6.54245 2.07557H9.4574C9.51875 2.07557 9.5776 2.09995 9.62099 2.14333C9.66437 2.18672 9.68874 2.24556 9.68874 2.30692V2.91767H6.3111Z" fill="black" fill-opacity="0.2"/>
<path d="M5.68622 15.6181C5.87029 15.6181 6.04682 15.545 6.17698 15.4148C6.30714 15.2847 6.38026 15.1081 6.38026 14.9241V9.99872C6.38026 9.81465 6.30714 9.63812 6.17698 9.50797C6.04682 9.37781 5.87029 9.30469 5.68622 9.30469C5.50215 9.30469 5.32562 9.37781 5.19547 9.50797C5.06531 9.63812 4.99219 9.81465 4.99219 9.99872V14.9241C4.99219 15.1081 5.06531 15.2847 5.19547 15.4148C5.32562 15.545 5.50215 15.6181 5.68622 15.6181Z" fill="black" fill-opacity="0.2"/>
<path d="M10.3132 15.6181C10.4972 15.6181 10.6738 15.545 10.8039 15.4148C10.9341 15.2847 11.0072 15.1081 11.0072 14.9241V9.99872C11.0072 9.81465 10.9341 9.63812 10.8039 9.50797C10.6738 9.37781 10.4972 9.30469 10.3132 9.30469C10.1291 9.30469 9.95258 9.37781 9.82242 9.50797C9.69226 9.63812 9.61914 9.81465 9.61914 9.99872V14.9241C9.61914 15.1081 9.69226 15.2847 9.82242 15.4148C9.95258 15.545 10.1291 15.6181 10.3132 15.6181Z" fill="black" fill-opacity="0.2"/>
</svg>
