<svg width="9" height="11" viewBox="0 0 9 11" fill="none" xmlns="http://www.w3.org/2000/svg">
<path d="M8.875 6.8125C8.875 7.10547 8.73828 7.33984 8.5625 7.51562V9.09766C8.73828 9.21484 8.875 9.41016 8.875 9.625C8.875 9.97656 8.58203 10.25 8.25 10.25H2C0.945312 10.25 0.125 9.42969 0.125 8.375V2.125C0.125 1.08984 0.945312 0.25 2 0.25H3.875V4C3.875 4.27344 4.16797 4.41016 4.36328 4.25391L5.4375 3.375L6.49219 4.23438C6.6875 4.39062 7 4.25391 7 4V0.25H7.9375C8.44531 0.25 8.875 0.679688 8.875 1.1875V6.8125ZM7.625 9V7.75H2C1.64844 7.75 1.375 8.04297 1.375 8.375C1.375 8.72656 1.64844 9 2 9H7.625Z" fill="white"/>
</svg>
