<svg width="46" height="46" viewBox="0 0 46 46" fill="none" xmlns="http://www.w3.org/2000/svg">
<rect width="46" height="46" rx="15" fill="white"/>
<path d="M31.7829 23.9478H24.8323V30.8983C24.8323 31.6629 24.2068 32.2884 23.4422 32.2884C22.6776 32.2884 22.0521 31.6629 22.0521 30.8983V23.9478H15.1015C14.337 23.9478 13.7114 23.3222 13.7114 22.5577C13.7114 21.7931 14.337 21.1676 15.1015 21.1676H22.0521V14.217C22.0521 13.4525 22.6776 12.8269 23.4422 12.8269C24.2068 12.8269 24.8323 13.4525 24.8323 14.217V21.1676H31.7829C32.5474 21.1676 33.173 21.7931 33.173 22.5577C33.173 23.3222 32.5474 23.9478 31.7829 23.9478Z" fill="#094E85"/>
</svg>
