<svg width="30" height="30" viewBox="0 0 30 30" fill="none" xmlns="http://www.w3.org/2000/svg">
<path d="M5.00002 26.2502C4.31252 26.2502 3.72376 26.0052 3.23376 25.5152C2.74375 25.0252 2.49917 24.4368 2.5 23.7502V10.0001C2.5 9.31256 2.745 8.7238 3.23501 8.2338C3.72501 7.74379 4.31335 7.49921 5.00002 7.50004H10.0001V5.00002C10.0001 4.31252 10.2451 3.72376 10.7351 3.23376C11.2251 2.74375 11.8134 2.49917 12.5001 2.5H17.5001C18.1876 2.5 18.7764 2.745 19.2664 3.23501C19.7564 3.72501 20.001 4.31335 20.0001 5.00002V7.50004H25.0002C25.6877 7.50004 26.2764 7.74504 26.7664 8.23505C27.2565 8.72505 27.501 9.31339 27.5002 10.0001V23.7502C27.5002 24.4377 27.2552 25.0264 26.7652 25.5164C26.2752 26.0064 25.6869 26.251 25.0002 26.2502H5.00002ZM12.5001 7.50004H17.5001V5.00002H12.5001V7.50004ZM25.0002 18.7501H18.7501V21.2502H11.2501V18.7501H5.00002V23.7502H25.0002V18.7501ZM13.7501 18.7501H16.2501V16.2501H13.7501V18.7501ZM5.00002 16.2501H11.2501V13.7501H18.7501V16.2501H25.0002V10.0001H5.00002V16.2501Z" fill="#094E85"/>
</svg>
