<svg width="14" height="14" viewBox="0 0 14 14" fill="none" xmlns="http://www.w3.org/2000/svg">
<mask id="mask0_1349_773" style="mask-type:luminance" maskUnits="userSpaceOnUse" x="-1" y="-1" width="16" height="16">
<path d="M14.05 0V-0.05H14H0H-0.05V0V14V14.05H0H14H14.05V14V0Z" fill="white" stroke="white" stroke-width="0.1"/>
</mask>
<g mask="url(#mask0_1349_773)">
<path d="M11.6199 2.58944H10.9119V1.96875C10.9119 1.69985 10.6933 1.48125 10.4244 1.48125H9.65989C9.391 1.48125 9.17239 1.69985 9.17239 1.96875V2.58944H4.8263V1.96875C4.8263 1.69985 4.60769 1.48125 4.3388 1.48125H3.57405C3.30515 1.48125 3.08655 1.69985 3.08655 1.96875V2.58944H2.37858C1.98171 2.58944 1.65898 2.91217 1.65898 3.30903V11.7992C1.65898 12.196 1.98171 12.5188 2.37858 12.5188H11.6199C12.0168 12.5188 12.3395 12.196 12.3395 11.7992V3.30903C12.3395 2.91217 12.0168 2.58944 11.6199 2.58944ZM9.70989 2.01875H10.3744L10.3746 3.69762H9.70989V2.01875ZM3.62405 2.01875H4.2888L4.28901 3.69762H3.62405V2.01875ZM2.37858 3.12694H3.08655V3.74762C3.08655 4.01652 3.30515 4.23512 3.57405 4.23512H4.3388C4.60769 4.23512 4.8263 4.01652 4.8263 3.74762V3.12694H9.17261V3.74762C9.17261 4.01652 9.39121 4.23512 9.66011 4.23512H10.4246C10.6935 4.23512 10.9121 4.01652 10.9121 3.74762V3.12694H11.6201C11.7205 3.12694 11.8022 3.20868 11.8022 3.30903V5.21925H2.19648V3.30903C2.19648 3.20868 2.27822 3.12694 2.37858 3.12694ZM11.6199 11.9812H2.37858C2.27822 11.9812 2.19648 11.8995 2.19648 11.7992V5.75675H11.802V11.7992C11.802 11.8995 11.7202 11.9812 11.6199 11.9812Z" fill="#4B4B4B" stroke="#B3B3B3" stroke-width="0.1"/>
<path d="M4.67837 6.42266H3.61328C3.34439 6.42266 3.12578 6.64126 3.12578 6.91016V8.0505C3.12578 8.3194 3.34439 8.538 3.61328 8.538H4.67837C4.94727 8.538 5.16587 8.3194 5.16587 8.0505V6.91016C5.16587 6.64126 4.94727 6.42266 4.67837 6.42266ZM3.66328 8.0005V6.96016H4.62838L4.62858 8.0005H3.66328Z" fill="#4B4B4B" stroke="#B3B3B3" stroke-width="0.1"/>
<path d="M7.53189 6.42266H6.4668C6.1979 6.42266 5.9793 6.64126 5.9793 6.91016V8.0505C5.9793 8.3194 6.1979 8.538 6.4668 8.538H7.53189C7.80079 8.538 8.01939 8.3194 8.01939 8.0505V6.91016C8.01939 6.64124 7.80055 6.42266 7.53189 6.42266ZM6.5168 8.0005V6.96016H7.4819L7.4821 8.0005H6.5168Z" fill="#4B4B4B" stroke="#B3B3B3" stroke-width="0.1"/>
<path d="M10.3854 6.42266H9.32031C9.05142 6.42266 8.83281 6.64126 8.83281 6.91016V8.0505C8.83281 8.3194 9.05142 8.538 9.32031 8.538H10.3854C10.6543 8.538 10.8729 8.3194 10.8729 8.0505V6.91016C10.8729 6.64124 10.6541 6.42266 10.3854 6.42266ZM9.37009 8.0005V6.96016H10.3352L10.3354 8.0005H9.37009Z" fill="#4B4B4B" stroke="#B3B3B3" stroke-width="0.1"/>
<path d="M4.67837 9.12578H3.61328C3.34439 9.12578 3.12578 9.34439 3.12578 9.61328V10.7536C3.12578 11.0225 3.34439 11.2411 3.61328 11.2411H4.67837C4.94727 11.2411 5.16587 11.0225 5.16587 10.7536V9.61328C5.16587 9.34439 4.94727 9.12578 4.67837 9.12578ZM3.66328 10.7036V9.66328H4.62838L4.62858 10.7036H3.66328Z" fill="#4B4B4B" stroke="#B3B3B3" stroke-width="0.1"/>
<path d="M7.53189 9.12578H6.4668C6.1979 9.12578 5.9793 9.34439 5.9793 9.61328V10.7536C5.9793 11.0225 6.1979 11.2411 6.4668 11.2411H7.53189C7.80079 11.2411 8.01939 11.0225 8.01939 10.7536V9.61328C8.01939 9.34437 7.80055 9.12578 7.53189 9.12578ZM6.5168 10.7036V9.66328H7.48191L7.48231 10.7036H6.5168Z" fill="#4B4B4B" stroke="#B3B3B3" stroke-width="0.1"/>
<path d="M10.3854 9.12578H9.32031C9.05142 9.12578 8.83281 9.34439 8.83281 9.61328V10.7536C8.83281 11.0225 9.05142 11.2411 9.32031 11.2411H10.3854C10.6543 11.2411 10.8729 11.0225 10.8729 10.7536V9.61328C10.8729 9.34437 10.6541 9.12578 10.3854 9.12578ZM9.37009 10.7036V9.66328H10.3352L10.3356 10.7036H9.37009Z" fill="#4B4B4B" stroke="#B3B3B3" stroke-width="0.1"/>
</g>
</svg>
