<svg width="17" height="16" viewBox="0 0 17 16" fill="none" xmlns="http://www.w3.org/2000/svg">
<path d="M12.3946 11.1957H12.3944C12.0187 11.1957 11.6514 11.3071 11.3389 11.5159C11.0265 11.7247 10.783 12.0214 10.6392 12.3686C10.4954 12.7157 10.4577 13.0977 10.531 13.4663C10.6043 13.8348 10.7853 14.1734 11.051 14.4391C11.3167 14.7048 11.6552 14.8857 12.0238 14.959C12.3923 15.0323 12.7744 14.9947 13.1215 14.8509C13.4687 14.7071 13.7654 14.4636 13.9742 14.1512C14.1829 13.8387 14.2944 13.4714 14.2944 13.0956L14.2944 13.0955C14.2939 12.5918 14.0935 12.1089 13.7374 11.7527C13.3812 11.3965 12.8983 11.1962 12.3946 11.1957ZM12.3944 13.986C12.2179 13.986 12.0454 13.9337 11.8986 13.8356C11.7519 13.7375 11.6375 13.598 11.5701 13.4349C11.5026 13.2718 11.485 13.0923 11.5195 12.9192C11.5541 12.7461 11.6392 12.5872 11.7641 12.4625C11.8891 12.3377 12.0482 12.2529 12.2213 12.2186C12.3945 12.1844 12.5739 12.2023 12.7369 12.27C12.8999 12.3378 13.0391 12.4524 13.137 12.5993C13.2348 12.7462 13.2869 12.9188 13.2866 13.0954C13.2862 13.3317 13.192 13.5583 13.0248 13.7252C12.8575 13.8922 12.6308 13.986 12.3944 13.986Z" fill="white" stroke="white" stroke-width="0.3"/>
<path d="M4.80852 2.05156L4.80851 2.05152C4.7267 1.70929 4.53197 1.4046 4.25575 1.18661C3.97954 0.968613 3.63793 0.850034 3.28605 0.85H3.28604H1.35388C1.22024 0.85 1.09208 0.903087 0.997582 0.997582C0.903087 1.09208 0.85 1.22024 0.85 1.35388C0.85 1.48751 0.903087 1.61568 0.997582 1.71017C1.09208 1.80467 1.22024 1.85775 1.35388 1.85775H3.29827C3.42243 1.86113 3.54193 1.90587 3.63781 1.98488C3.73412 2.06426 3.80103 2.17365 3.82783 2.29554L3.8278 2.29555L3.82846 2.29829L5.37667 8.76007L5.37668 8.76012C5.49584 9.25672 5.77875 9.69873 6.17981 10.0149C6.58087 10.3311 7.07671 10.503 7.5874 10.5029C7.58741 10.5029 7.58741 10.5029 7.58742 10.5029H12.6478C13.1615 10.5029 13.66 10.329 14.0622 10.0094C14.4643 9.68984 14.7463 9.24353 14.8623 8.74317C14.8623 8.74316 14.8623 8.74314 14.8623 8.74313C14.8624 8.74311 14.8624 8.74309 14.8624 8.74307L16.0089 3.81368L16.0089 3.8135C16.0263 3.73856 16.0262 3.66065 16.0088 3.58574C15.9913 3.51083 15.957 3.4409 15.9084 3.38132C15.8597 3.32174 15.7981 3.27408 15.7282 3.242C15.6589 3.21021 15.5833 3.19456 15.5072 3.1962H5.08181L4.80852 2.05156ZM6.35672 8.52038L6.3567 8.52034L5.32342 4.20395H14.8796L13.8801 8.51247C13.8801 8.51249 13.8801 8.5125 13.8801 8.51251C13.8154 8.79088 13.6584 9.03916 13.4347 9.21695C13.2109 9.39473 12.9336 9.49155 12.6478 9.49166C12.6478 9.49166 12.6478 9.49166 12.6478 9.49166H7.5874C7.30297 9.49163 7.02683 9.39577 6.80354 9.21955C6.58026 9.04334 6.42285 8.79703 6.35672 8.52038Z" fill="white" stroke="white" stroke-width="0.3"/>
<path d="M7.37214 11.1957H7.37199C6.99622 11.1957 6.62889 11.3071 6.31645 11.5159C6.00401 11.7247 5.76049 12.0214 5.61669 12.3686C5.47289 12.7157 5.43527 13.0977 5.50858 13.4663C5.58189 13.8348 5.76284 14.1734 6.02854 14.4391C6.29425 14.7048 6.63279 14.8857 7.00133 14.959C7.36988 15.0323 7.75189 14.9947 8.09906 14.8509C8.44622 14.7071 8.74295 14.4636 8.95171 14.1512C9.16048 13.8387 9.27191 13.4714 9.27191 13.0956L9.27191 13.0955C9.2714 12.5918 9.07108 12.1089 8.71492 11.7527C8.35875 11.3965 7.87583 11.1962 7.37214 11.1957ZM7.37199 13.986C7.19547 13.986 7.02292 13.9337 6.87617 13.8356C6.72942 13.7375 6.61507 13.598 6.54759 13.4349C6.48011 13.2718 6.46253 13.0923 6.49708 12.9192C6.53163 12.7461 6.61675 12.5872 6.74167 12.4625C6.86659 12.3377 7.0257 12.2529 7.19887 12.2186C7.37203 12.1844 7.55146 12.2023 7.71446 12.27C7.87745 12.3378 8.01668 12.4524 8.11453 12.5993C8.21238 12.7462 8.26445 12.9188 8.26415 13.0954C8.26375 13.3317 8.16958 13.5583 8.00231 13.7252C7.83504 13.8922 7.60834 13.986 7.37199 13.986Z" fill="white" stroke="white" stroke-width="0.3"/>
</svg>
