<svg width="22" height="22" viewBox="0 0 22 22" fill="none" xmlns="http://www.w3.org/2000/svg">
<g clip-path="url(#clip0_3395_1881)">
<mask id="path-1-outside-1_3395_1881" maskUnits="userSpaceOnUse" x="0" y="0" width="22" height="22" fill="black">
<rect fill="white" width="22" height="22"/>
<path d="M1.00143 1.71413C1.00143 1.52473 1.07666 1.34309 1.21058 1.20916C1.3445 1.07524 1.52613 1 1.71552 1H2.34107C3.37937 1 3.97636 1.67557 4.32198 2.34971C4.55763 2.81104 4.72759 3.37378 4.86898 3.86224H19.5722C19.7929 3.86231 20.0106 3.91352 20.2081 4.01185C20.4057 4.11017 20.5778 4.25295 20.7109 4.42897C20.844 4.60499 20.9345 4.80947 20.9754 5.02635C21.0162 5.24323 21.0062 5.46663 20.9462 5.679L18.8096 13.2131C18.6396 13.8108 18.2794 14.3369 17.7835 14.7114C17.2876 15.0859 16.6831 15.2884 16.0617 15.2884H8.80793C8.18135 15.2886 7.57208 15.0827 7.07399 14.7026C6.5759 14.3224 6.21663 13.789 6.05152 13.1845L5.13462 9.82097C5.12936 9.80589 5.1246 9.79065 5.12034 9.77526L3.64787 4.78062L3.50505 4.29929C3.36223 3.80511 3.23655 3.36806 3.04803 3.001C2.82095 2.55824 2.61243 2.42969 2.33965 2.42969H1.7141C1.52471 2.42969 1.34307 2.35445 1.20915 2.22053C1.07523 2.0866 1 1.90496 1 1.71556M6.49712 9.38963L7.42973 12.8118C7.51241 13.1139 7.69211 13.3804 7.94114 13.5703C8.19017 13.7603 8.49474 13.8631 8.80793 13.863H16.0632C16.3737 13.8626 16.6757 13.7611 16.9234 13.5737C17.171 13.3864 17.3509 13.1234 17.4357 12.8246L19.5722 5.29051H5.29029L6.49712 9.38963ZM11.0031 18.8576C11.0031 19.4258 10.7774 19.9707 10.3756 20.3725C9.97385 20.7743 9.42895 21 8.86078 21C8.29261 21 7.74771 20.7743 7.34595 20.3725C6.94419 19.9707 6.71849 19.4258 6.71849 18.8576C6.71849 18.2894 6.94419 17.7445 7.34595 17.3427C7.74771 16.9409 8.29261 16.7152 8.86078 16.7152C9.42895 16.7152 9.97385 16.9409 10.3756 17.3427C10.7774 17.7445 11.0031 18.2894 11.0031 18.8576ZM9.57487 18.8576C9.57487 18.6682 9.49964 18.4866 9.36572 18.3526C9.2318 18.2187 9.05017 18.1435 8.86078 18.1435C8.67139 18.1435 8.48975 18.2187 8.35583 18.3526C8.22192 18.4866 8.14668 18.6682 8.14668 18.8576C8.14668 19.047 8.22192 19.2286 8.35583 19.3626C8.48975 19.4965 8.67139 19.5717 8.86078 19.5717C9.05017 19.5717 9.2318 19.4965 9.36572 19.3626C9.49964 19.2286 9.57487 19.047 9.57487 18.8576ZM18.144 18.8576C18.144 19.4258 17.9183 19.9707 17.5166 20.3725C17.1148 20.7743 16.5699 21 16.0017 21C15.4336 21 14.8887 20.7743 14.4869 20.3725C14.0852 19.9707 13.8595 19.4258 13.8595 18.8576C13.8595 18.2894 14.0852 17.7445 14.4869 17.3427C14.8887 16.9409 15.4336 16.7152 16.0017 16.7152C16.5699 16.7152 17.1148 16.9409 17.5166 17.3427C17.9183 17.7445 18.144 18.2894 18.144 18.8576ZM16.7158 18.8576C16.7158 18.6682 16.6406 18.4866 16.5067 18.3526C16.3728 18.2187 16.1911 18.1435 16.0017 18.1435C15.8124 18.1435 15.6307 18.2187 15.4968 18.3526C15.3629 18.4866 15.2876 18.6682 15.2876 18.8576C15.2876 19.047 15.3629 19.2286 15.4968 19.3626C15.6307 19.4965 15.8124 19.5717 16.0017 19.5717C16.1911 19.5717 16.3728 19.4965 16.5067 19.3626C16.6406 19.2286 16.7158 19.047 16.7158 18.8576Z"/>
</mask>
<path d="M1.00143 1.71413C1.00143 1.52473 1.07666 1.34309 1.21058 1.20916C1.3445 1.07524 1.52613 1 1.71552 1H2.34107C3.37937 1 3.97636 1.67557 4.32198 2.34971C4.55763 2.81104 4.72759 3.37378 4.86898 3.86224H19.5722C19.7929 3.86231 20.0106 3.91352 20.2081 4.01185C20.4057 4.11017 20.5778 4.25295 20.7109 4.42897C20.844 4.60499 20.9345 4.80947 20.9754 5.02635C21.0162 5.24323 21.0062 5.46663 20.9462 5.679L18.8096 13.2131C18.6396 13.8108 18.2794 14.3369 17.7835 14.7114C17.2876 15.0859 16.6831 15.2884 16.0617 15.2884H8.80793C8.18135 15.2886 7.57208 15.0827 7.07399 14.7026C6.5759 14.3224 6.21663 13.789 6.05152 13.1845L5.13462 9.82097C5.12936 9.80589 5.1246 9.79065 5.12034 9.77526L3.64787 4.78062L3.50505 4.29929C3.36223 3.80511 3.23655 3.36806 3.04803 3.001C2.82095 2.55824 2.61243 2.42969 2.33965 2.42969H1.7141C1.52471 2.42969 1.34307 2.35445 1.20915 2.22053C1.07523 2.0866 1 1.90496 1 1.71556M6.49712 9.38963L7.42973 12.8118C7.51241 13.1139 7.69211 13.3804 7.94114 13.5703C8.19017 13.7603 8.49474 13.8631 8.80793 13.863H16.0632C16.3737 13.8626 16.6757 13.7611 16.9234 13.5737C17.171 13.3864 17.3509 13.1234 17.4357 12.8246L19.5722 5.29051H5.29029L6.49712 9.38963ZM11.0031 18.8576C11.0031 19.4258 10.7774 19.9707 10.3756 20.3725C9.97385 20.7743 9.42895 21 8.86078 21C8.29261 21 7.74771 20.7743 7.34595 20.3725C6.94419 19.9707 6.71849 19.4258 6.71849 18.8576C6.71849 18.2894 6.94419 17.7445 7.34595 17.3427C7.74771 16.9409 8.29261 16.7152 8.86078 16.7152C9.42895 16.7152 9.97385 16.9409 10.3756 17.3427C10.7774 17.7445 11.0031 18.2894 11.0031 18.8576ZM9.57487 18.8576C9.57487 18.6682 9.49964 18.4866 9.36572 18.3526C9.2318 18.2187 9.05017 18.1435 8.86078 18.1435C8.67139 18.1435 8.48975 18.2187 8.35583 18.3526C8.22192 18.4866 8.14668 18.6682 8.14668 18.8576C8.14668 19.047 8.22192 19.2286 8.35583 19.3626C8.48975 19.4965 8.67139 19.5717 8.86078 19.5717C9.05017 19.5717 9.2318 19.4965 9.36572 19.3626C9.49964 19.2286 9.57487 19.047 9.57487 18.8576ZM18.144 18.8576C18.144 19.4258 17.9183 19.9707 17.5166 20.3725C17.1148 20.7743 16.5699 21 16.0017 21C15.4336 21 14.8887 20.7743 14.4869 20.3725C14.0852 19.9707 13.8595 19.4258 13.8595 18.8576C13.8595 18.2894 14.0852 17.7445 14.4869 17.3427C14.8887 16.9409 15.4336 16.7152 16.0017 16.7152C16.5699 16.7152 17.1148 16.9409 17.5166 17.3427C17.9183 17.7445 18.144 18.2894 18.144 18.8576ZM16.7158 18.8576C16.7158 18.6682 16.6406 18.4866 16.5067 18.3526C16.3728 18.2187 16.1911 18.1435 16.0017 18.1435C15.8124 18.1435 15.6307 18.2187 15.4968 18.3526C15.3629 18.4866 15.2876 18.6682 15.2876 18.8576C15.2876 19.047 15.3629 19.2286 15.4968 19.3626C15.6307 19.4965 15.8124 19.5717 16.0017 19.5717C16.1911 19.5717 16.3728 19.4965 16.5067 19.3626C16.6406 19.2286 16.7158 19.047 16.7158 18.8576Z" fill="#094E85"/>
<path d="M4.32198 2.34971L4.41103 2.30422L4.41097 2.30409L4.32198 2.34971ZM4.86898 3.86224L4.77292 3.89005L4.79382 3.96224H4.86898V3.86224ZM19.5722 3.86224L19.5723 3.76224H19.5722V3.86224ZM20.9462 5.679L21.0424 5.70628L21.0424 5.7062L20.9462 5.679ZM18.8096 13.2131L18.9058 13.2404L18.9058 13.2404L18.8096 13.2131ZM16.0617 15.2884L16.0617 15.1884H16.0617V15.2884ZM8.80793 15.2884V15.1884H8.8079L8.80793 15.2884ZM6.05152 13.1845L5.95504 13.2108L5.95505 13.2109L6.05152 13.1845ZM5.13462 9.82097L5.23133 9.7946L5.22904 9.78804L5.13462 9.82097ZM5.12034 9.77526L5.21672 9.74857L5.21626 9.74698L5.12034 9.77526ZM3.64787 4.78062L3.74379 4.75234L3.74374 4.75217L3.64787 4.78062ZM3.50505 4.29929L3.40898 4.32706L3.40918 4.32774L3.50505 4.29929ZM3.04803 3.001L2.95905 3.04664L2.95908 3.04669L3.04803 3.001ZM6.49712 9.38963L6.59362 9.36333L6.59305 9.36139L6.49712 9.38963ZM7.42973 12.8118L7.33325 12.838L7.33328 12.8382L7.42973 12.8118ZM8.80793 13.863V13.763H8.80789L8.80793 13.863ZM16.0632 13.863V13.963H16.0633L16.0632 13.863ZM16.9234 13.5737L16.9837 13.6535L16.9234 13.5737ZM17.4357 12.8246L17.5319 12.8519L17.5319 12.8519L17.4357 12.8246ZM19.5722 5.29051L19.6684 5.31779L19.7045 5.19051H19.5722V5.29051ZM5.29029 5.29051V5.19051H5.15661L5.19437 5.31875L5.29029 5.29051ZM11.0031 18.8576H11.1031H11.0031ZM8.86078 16.7152V16.6152V16.7152ZM18.144 18.8576H18.244H18.144ZM13.8595 18.8576H13.7595H13.8595ZM16.0017 16.7152V16.6152V16.7152ZM1.10143 1.71413C1.10143 1.55125 1.16613 1.39505 1.28129 1.27987L1.13987 1.13846C0.987198 1.29114 0.901428 1.49821 0.901428 1.71413H1.10143ZM1.28129 1.27987C1.39646 1.1647 1.55266 1.1 1.71552 1.1V0.9C1.49961 0.9 1.29254 0.985775 1.13987 1.13846L1.28129 1.27987ZM1.71552 1.1H2.34107V0.9H1.71552V1.1ZM2.34107 1.1C3.32532 1.1 3.89533 1.73672 4.23299 2.39533L4.41097 2.30409C4.05738 1.61442 3.43343 0.9 2.34107 0.9V1.1ZM4.23292 2.3952C4.46361 2.84681 4.63126 3.40065 4.77292 3.89005L4.96503 3.83444C4.82391 3.3469 4.65165 2.77527 4.41103 2.30422L4.23292 2.3952ZM4.86898 3.96224H19.5722V3.76224H4.86898V3.96224ZM19.5722 3.96224C19.7774 3.9623 19.9798 4.00993 20.1636 4.10137L20.2527 3.92232C20.0413 3.81711 19.8084 3.76231 19.5723 3.76224L19.5722 3.96224ZM20.1636 4.10137C20.3473 4.19281 20.5074 4.32559 20.6312 4.48929L20.7907 4.36865C20.6482 4.18031 20.4641 4.02753 20.2527 3.92232L20.1636 4.10137ZM20.6312 4.48929C20.7549 4.65299 20.8391 4.84314 20.8771 5.04484L21.0736 5.00786C21.03 4.77579 20.9331 4.557 20.7907 4.36865L20.6312 4.48929ZM20.8771 5.04484C20.915 5.24654 20.9057 5.4543 20.8499 5.6518L21.0424 5.7062C21.1066 5.47896 21.1173 5.23992 21.0736 5.00786L20.8771 5.04484ZM20.8499 5.65171L18.7134 13.1858L18.9058 13.2404L21.0424 5.70628L20.8499 5.65171ZM18.7134 13.1857C18.5494 13.7626 18.2018 14.2702 17.7232 14.6316L17.8438 14.7912C18.357 14.4035 18.7299 13.8591 18.9058 13.2404L18.7134 13.1857ZM17.7232 14.6316C17.2447 14.993 16.6614 15.1884 16.0617 15.1884L16.0617 15.3884C16.7049 15.3884 17.3305 15.1788 17.8438 14.7912L17.7232 14.6316ZM16.0617 15.1884H8.80793V15.3884H16.0617V15.1884ZM8.8079 15.1884C8.20325 15.1886 7.61531 14.9899 7.13466 14.6231L7.01332 14.7821C7.52885 15.1755 8.15945 15.3886 8.80797 15.3884L8.8079 15.1884ZM7.13466 14.6231C6.65401 14.2562 6.30731 13.7415 6.14799 13.1582L5.95505 13.2109C6.12594 13.8365 6.49779 14.3886 7.01332 14.7821L7.13466 14.6231ZM6.148 13.1582L5.2311 9.79467L5.03814 9.84727L5.95504 13.2108L6.148 13.1582ZM5.22904 9.78804C5.2245 9.77502 5.22039 9.76186 5.21671 9.74857L5.02397 9.80195C5.02881 9.81944 5.03422 9.83676 5.0402 9.8539L5.22904 9.78804ZM5.21626 9.74698L3.74379 4.75234L3.55195 4.8089L5.02442 9.80354L5.21626 9.74698ZM3.74374 4.75217L3.60092 4.27085L3.40918 4.32774L3.552 4.80906L3.74374 4.75217ZM3.60112 4.27153C3.45908 3.78003 3.33083 3.33274 3.13698 2.95531L2.95908 3.04669C3.14227 3.40338 3.26539 3.8302 3.40898 4.32706L3.60112 4.27153ZM3.13701 2.95536C3.02035 2.7279 2.90317 2.5702 2.77165 2.46982C2.63675 2.36685 2.49407 2.32969 2.33965 2.32969V2.52969C2.458 2.52969 2.55598 2.5568 2.6503 2.6288C2.74801 2.70338 2.84863 2.83134 2.95905 3.04664L3.13701 2.95536ZM2.33965 2.32969H1.7141V2.52969H2.33965V2.32969ZM1.7141 2.32969C1.55123 2.32969 1.39503 2.26499 1.27987 2.14982L1.13844 2.29124C1.29111 2.44392 1.49818 2.52969 1.7141 2.52969V2.32969ZM1.27987 2.14982C1.1647 2.03465 1.1 1.87844 1.1 1.71556H0.9C0.9 1.93148 0.985769 2.13856 1.13844 2.29124L1.27987 2.14982ZM6.40064 9.41592L7.33325 12.838L7.52621 12.7855L6.5936 9.36334L6.40064 9.41592ZM7.33328 12.8382C7.42175 13.1614 7.61402 13.4466 7.88049 13.6499L8.00179 13.4908C7.77019 13.3142 7.60308 13.0663 7.52618 12.7854L7.33328 12.8382ZM7.88049 13.6499C8.14696 13.8531 8.47285 13.9631 8.80798 13.963L8.80789 13.763C8.51662 13.7631 8.23338 13.6675 8.00179 13.4908L7.88049 13.6499ZM8.80793 13.963H16.0632V13.763H8.80793V13.963ZM16.0633 13.963C16.3956 13.9626 16.7187 13.854 16.9837 13.6535L16.863 13.494C16.6327 13.6682 16.3519 13.7627 16.0631 13.763L16.0633 13.963ZM16.9837 13.6535C17.2487 13.453 17.4411 13.1716 17.5319 12.8519L17.3395 12.7973C17.2606 13.0752 17.0933 13.3197 16.863 13.494L16.9837 13.6535ZM17.5319 12.8519L19.6684 5.31779L19.476 5.26323L17.3394 12.7973L17.5319 12.8519ZM19.5722 5.19051H5.29029V5.39051H19.5722V5.19051ZM5.19437 5.31875L6.40119 9.41787L6.59305 9.36139L5.38622 5.26227L5.19437 5.31875ZM10.9031 18.8576C10.9031 19.3993 10.6879 19.9188 10.3049 20.3018L10.4463 20.4432C10.8668 20.0227 11.1031 19.4523 11.1031 18.8576H10.9031ZM10.3049 20.3018C9.92189 20.6848 9.40242 20.9 8.86078 20.9V21.1C9.45547 21.1 10.0258 20.8637 10.4463 20.4432L10.3049 20.3018ZM8.86078 20.9C8.31913 20.9 7.79967 20.6848 7.41666 20.3018L7.27524 20.4432C7.69575 20.8637 8.26608 21.1 8.86078 21.1V20.9ZM7.41666 20.3018C7.03366 19.9188 6.81849 19.3993 6.81849 18.8576H6.61849C6.61849 19.4523 6.85473 20.0227 7.27524 20.4432L7.41666 20.3018ZM6.81849 18.8576C6.81849 18.3159 7.03366 17.7964 7.41666 17.4134L7.27524 17.272C6.85473 17.6925 6.61849 18.2629 6.61849 18.8576H6.81849ZM7.41666 17.4134C7.79967 17.0304 8.31913 16.8152 8.86078 16.8152V16.6152C8.26608 16.6152 7.69575 16.8515 7.27524 17.272L7.41666 17.4134ZM8.86078 16.8152C9.40242 16.8152 9.92189 17.0304 10.3049 17.4134L10.4463 17.272C10.0258 16.8515 9.45547 16.6152 8.86078 16.6152V16.8152ZM10.3049 17.4134C10.6879 17.7964 10.9031 18.3159 10.9031 18.8576H11.1031C11.1031 18.2629 10.8668 17.6925 10.4463 17.272L10.3049 17.4134ZM9.67487 18.8576C9.67487 18.6417 9.58911 18.4346 9.43643 18.2819L9.29501 18.4233C9.41017 18.5385 9.47487 18.6947 9.47487 18.8576H9.67487ZM9.43643 18.2819C9.28376 18.1292 9.07669 18.0435 8.86078 18.0435V18.2435C9.02364 18.2435 9.17984 18.3082 9.29501 18.4233L9.43643 18.2819ZM8.86078 18.0435C8.64486 18.0435 8.43779 18.1292 8.28512 18.2819L8.42655 18.4233C8.54171 18.3082 8.69791 18.2435 8.86078 18.2435V18.0435ZM8.28512 18.2819C8.13245 18.4346 8.04668 18.6417 8.04668 18.8576H8.24668C8.24668 18.6947 8.31138 18.5385 8.42655 18.4233L8.28512 18.2819ZM8.04668 18.8576C8.04668 19.0735 8.13245 19.2806 8.28512 19.4333L8.42655 19.2919C8.31138 19.1767 8.24668 19.0205 8.24668 18.8576H8.04668ZM8.28512 19.4333C8.43779 19.586 8.64486 19.6717 8.86078 19.6717V19.4717C8.69791 19.4717 8.54171 19.407 8.42655 19.2919L8.28512 19.4333ZM8.86078 19.6717C9.07669 19.6717 9.28376 19.586 9.43643 19.4333L9.29501 19.2919C9.17984 19.407 9.02364 19.4717 8.86078 19.4717V19.6717ZM9.43643 19.4333C9.58911 19.2806 9.67487 19.0735 9.67487 18.8576H9.47487C9.47487 19.0205 9.41017 19.1767 9.29501 19.2919L9.43643 19.4333ZM18.044 18.8576C18.044 19.3993 17.8289 19.9188 17.4459 20.3018L17.5873 20.4432C18.0078 20.0227 18.244 19.4523 18.244 18.8576H18.044ZM17.4459 20.3018C17.0629 20.6848 16.5434 20.9 16.0017 20.9V21.1C16.5964 21.1 17.1668 20.8637 17.5873 20.4432L17.4459 20.3018ZM16.0017 20.9C15.4601 20.9 14.9406 20.6848 14.5576 20.3018L14.4162 20.4432C14.8367 20.8637 15.4071 21.1 16.0017 21.1V20.9ZM14.5576 20.3018C14.1746 19.9188 13.9595 19.3993 13.9595 18.8576H13.7595C13.7595 19.4523 13.9957 20.0227 14.4162 20.4432L14.5576 20.3018ZM13.9595 18.8576C13.9595 18.3159 14.1746 17.7964 14.5576 17.4134L14.4162 17.272C13.9957 17.6925 13.7595 18.2629 13.7595 18.8576H13.9595ZM14.5576 17.4134C14.9406 17.0304 15.4601 16.8152 16.0017 16.8152V16.6152C15.4071 16.6152 14.8367 16.8515 14.4162 17.272L14.5576 17.4134ZM16.0017 16.8152C16.5434 16.8152 17.0629 17.0304 17.4459 17.4134L17.5873 17.272C17.1668 16.8515 16.5964 16.6152 16.0017 16.6152V16.8152ZM17.4459 17.4134C17.8289 17.7964 18.044 18.3159 18.044 18.8576H18.244C18.244 18.2629 18.0078 17.6925 17.5873 17.272L17.4459 17.4134ZM16.8158 18.8576C16.8158 18.6417 16.7301 18.4346 16.5774 18.2819L16.436 18.4233C16.5511 18.5385 16.6158 18.6947 16.6158 18.8576H16.8158ZM16.5774 18.2819C16.4247 18.1292 16.2177 18.0435 16.0017 18.0435V18.2435C16.1646 18.2435 16.3208 18.3082 16.436 18.4233L16.5774 18.2819ZM16.0017 18.0435C15.7858 18.0435 15.5788 18.1292 15.4261 18.2819L15.5675 18.4233C15.6827 18.3082 15.8389 18.2435 16.0017 18.2435V18.0435ZM15.4261 18.2819C15.2734 18.4346 15.1876 18.6417 15.1876 18.8576H15.3876C15.3876 18.6947 15.4523 18.5385 15.5675 18.4233L15.4261 18.2819ZM15.1876 18.8576C15.1876 19.0735 15.2734 19.2806 15.4261 19.4333L15.5675 19.2919C15.4523 19.1767 15.3876 19.0205 15.3876 18.8576H15.1876ZM15.4261 19.4333C15.5788 19.586 15.7858 19.6717 16.0017 19.6717V19.4717C15.8389 19.4717 15.6827 19.407 15.5675 19.2919L15.4261 19.4333ZM16.0017 19.6717C16.2177 19.6717 16.4247 19.586 16.5774 19.4333L16.436 19.2919C16.3208 19.407 16.1646 19.4717 16.0017 19.4717V19.6717ZM16.5774 19.4333C16.7301 19.2806 16.8158 19.0735 16.8158 18.8576H16.6158C16.6158 19.0205 16.5511 19.1767 16.436 19.2919L16.5774 19.4333Z" fill="#094E85" mask="url(#path-1-outside-1_3395_1881)"/>
</g>
<defs>
<clipPath id="clip0_3395_1881">
<rect width="22" height="22" fill="white"/>
</clipPath>
</defs>
</svg>
