<svg width="28" height="28" viewBox="0 0 28 28" fill="none" xmlns="http://www.w3.org/2000/svg">
<path d="M13 21V19H21V11.9C21 9.95 20.321 8.296 18.963 6.938C17.605 5.58 15.9507 4.90067 14 4.9C12.05 4.9 10.396 5.57933 9.038 6.938C7.68 8.29667 7.00067 9.95067 7 11.9V18H6C5.45 18 4.97933 17.8043 4.588 17.413C4.19667 17.0217 4.00067 16.5507 4 16V14C4 13.65 4.08767 13.321 4.263 13.013C4.43833 12.705 4.684 12.459 5 12.275L5.075 10.95C5.20833 9.81667 5.53767 8.76667 6.063 7.8C6.58833 6.83333 7.24667 5.99167 8.038 5.275C8.82933 4.55833 9.73733 4 10.762 3.6C11.7867 3.2 12.866 3 14 3C15.1333 3 16.2083 3.2 17.225 3.6C18.2417 4 19.15 4.55433 19.95 5.263C20.75 5.971 21.4083 6.80833 21.925 7.775C22.4417 8.74167 22.775 9.79167 22.925 10.925L23 12.225C23.3167 12.375 23.5627 12.6 23.738 12.9C23.9133 13.2 24.0007 13.5167 24 13.85V16.15C24 16.4833 23.9127 16.8 23.738 17.1C23.5633 17.4 23.3173 17.625 23 17.775V19C23 19.55 22.8043 20.021 22.413 20.413C22.0217 20.805 21.5507 21.0007 21 21H13ZM11 14C10.7167 14 10.4793 13.904 10.288 13.712C10.0967 13.52 10.0007 13.2827 10 13C10 12.7167 10.096 12.4793 10.288 12.288C10.48 12.0967 10.7173 12.0007 11 12C11.2833 12 11.521 12.096 11.713 12.288C11.905 12.48 12.0007 12.7173 12 13C12 13.2833 11.904 13.521 11.712 13.713C11.52 13.905 11.2827 14.0007 11 14ZM17 14C16.7167 14 16.4793 13.904 16.288 13.712C16.0967 13.52 16.0007 13.2827 16 13C16 12.7167 16.096 12.4793 16.288 12.288C16.48 12.0967 16.7173 12.0007 17 12C17.2833 12 17.521 12.096 17.713 12.288C17.905 12.48 18.0007 12.7173 18 13C18 13.2833 17.904 13.521 17.712 13.713C17.52 13.905 17.2827 14.0007 17 14ZM8.025 12.45C7.90833 10.6833 8.44167 9.16667 9.625 7.9C10.8083 6.63333 12.2833 6 14.05 6C15.5333 6 16.8377 6.47067 17.963 7.412C19.0883 8.35333 19.7673 9.558 20 11.026C18.4833 11.0087 17.0877 10.6 15.813 9.8C14.5383 9 13.559 7.91667 12.875 6.55C12.6083 7.88333 12.046 9.071 11.188 10.113C10.33 11.155 9.27567 11.934 8.025 12.45Z" fill="#094E85"/>
</svg>
