<svg width="15" height="15" viewBox="0 0 15 15" fill="none" xmlns="http://www.w3.org/2000/svg">
<path d="M6.4765 7.35149C6.39574 7.26896 6.35348 7.22311 6.30887 7.17955C4.29989 5.21561 2.29028 3.25335 0.280038 1.29278C0.105841 1.12267 -0.0101368 0.934684 0.00770554 0.686632C0.0288346 0.396855 0.18472 0.192359 0.444843 0.0690209C0.704965 -0.0543175 0.958047 -0.0226794 1.18906 0.144676C1.26217 0.201909 1.3309 0.26428 1.39471 0.331288C3.37928 2.26894 5.3637 4.20705 7.34795 6.14562C7.39491 6.19147 7.43106 6.2419 7.48506 6.30472C7.55173 6.24236 7.60197 6.19789 7.64986 6.15112L13.6158 0.32441C13.674 0.268013 13.7303 0.209325 13.7937 0.158889C13.9331 0.0465581 14.1106 -0.0105526 14.291 -0.00112643C14.4715 0.00829975 14.6417 0.0835743 14.768 0.209783C15.0455 0.473883 15.0774 0.8682 14.8455 1.16164C14.7897 1.22787 14.7297 1.29051 14.6657 1.34917C12.6776 3.2908 10.689 5.23227 8.69974 7.17359C8.64759 7.21771 8.59254 7.25845 8.53494 7.29555C8.60913 7.37167 8.65561 7.42118 8.70397 7.46887L14.6567 13.2837C14.7107 13.3359 14.7657 13.3882 14.815 13.4446C14.9371 13.578 15.0026 13.7519 14.998 13.9308C14.9933 14.1098 14.919 14.2802 14.7901 14.4075C14.6662 14.5397 14.4956 14.6212 14.3127 14.6356C14.1297 14.65 13.948 14.5961 13.8041 14.4849C13.7497 14.4415 13.6981 14.3948 13.6496 14.3451C11.6516 12.3964 9.65431 10.4473 7.65785 8.49776C7.61089 8.45191 7.5738 8.40239 7.51698 8.33866C7.45219 8.39918 7.40242 8.44365 7.35453 8.48996C5.34492 10.4515 3.33656 12.4136 1.32945 14.3763C1.15995 14.5418 0.976827 14.6514 0.727034 14.6427C0.417141 14.6312 0.210545 14.4716 0.0786058 14.2149C-0.0533336 13.9581 -0.0153013 13.7032 0.163592 13.4739C0.215558 13.4121 0.271717 13.3537 0.331686 13.2992C2.3197 11.357 4.30834 9.41599 6.2976 7.4762C6.35353 7.42978 6.41337 7.38807 6.4765 7.35149Z" fill="black"/>
</svg>
