<svg width="21" height="21" viewBox="0 0 21 21" fill="none" xmlns="http://www.w3.org/2000/svg">
<path d="M7.01172 0.414062V2.41406H13.0117V0.414062H15.0117V2.41406H19.0117C19.564 2.41406 20.0117 2.86178 20.0117 3.41406V19.4141C20.0117 19.9664 19.564 20.4141 19.0117 20.4141H1.01172C0.459439 20.4141 0.0117188 19.9664 0.0117188 19.4141L0.0117188 3.41406C0.0117188 2.86178 0.459439 2.41406 1.01172 2.41406H5.01172V0.414062H7.01172ZM18.0117 10.4141H2.01172V18.4141H18.0117V10.4141ZM9.01172 12.4141V16.4141H4.01172V12.4141H9.01172ZM5.01172 4.41406H2.01172V8.41406H18.0117V4.41406H15.0117V6.41406H13.0117V4.41406H7.01172V6.41406H5.01172V4.41406Z" fill="#094E85"/>
</svg>
