<svg width="32" height="32" viewBox="0 0 32 32" fill="none" xmlns="http://www.w3.org/2000/svg">
<path opacity="0.51" fill-rule="evenodd" clip-rule="evenodd" d="M18.6665 29.3334H13.3332C8.30517 29.3334 5.7905 29.3334 4.22917 27.7707C2.6665 26.2094 2.6665 23.6947 2.6665 18.6667V13.3334C2.6665 8.30535 2.6665 5.79069 4.22917 4.22935C5.7905 2.66669 8.3185 2.66669 13.3732 2.66669C14.1812 2.66669 14.8278 2.66669 15.3732 2.68935C15.3558 2.79602 15.3465 2.90402 15.3465 3.01469L15.3332 6.79335C15.3332 8.25602 15.3332 9.54935 15.4732 10.5907C15.6252 11.72 15.9732 12.8494 16.8958 13.772C17.8158 14.692 18.9465 15.0414 20.0758 15.1934C21.1172 15.3334 22.4105 15.3334 23.8732 15.3334H29.2758C29.3332 16.0454 29.3332 16.92 29.3332 18.084V18.6667C29.3332 23.6947 29.3332 26.2094 27.7705 27.7707C26.2092 29.3334 23.6945 29.3334 18.6665 29.3334Z" fill="#094E85"/>
<path d="M15.3468 3.01334L15.3335 6.79334C15.3335 8.25601 15.3335 9.54801 15.4735 10.5907C15.6255 11.72 15.9735 12.8493 16.8962 13.7707C17.8162 14.692 18.9468 15.0413 20.0762 15.1933C21.1175 15.3333 22.4108 15.3333 23.8735 15.3333H29.2762C29.2935 15.54 29.3055 15.7613 29.3135 16H29.3335C29.3335 15.6427 29.3335 15.464 29.3202 15.2533C29.2175 13.9863 28.7763 12.7702 28.0428 11.732C27.9175 11.5613 27.8322 11.46 27.6628 11.256C26.6055 9.99201 25.2135 8.41601 24.0002 7.33334C22.9202 6.36801 21.4388 5.31334 20.1468 4.45201C19.0375 3.71067 18.4828 3.34001 17.7215 3.06534C17.5 2.98609 17.2749 2.91757 17.0468 2.86001C16.5348 2.73334 16.0362 2.68934 15.3335 2.67334L15.3468 3.01334Z" fill="#094E85"/>
</svg>
