<svg width="21" height="14" viewBox="0 0 21 14" fill="none" xmlns="http://www.w3.org/2000/svg">
<g opacity="0.5">
<path d="M10.41 0C6.09 0 2.41 3.33 0.35 6.45L0 7L0.36 7.55C2.41 10.67 6.09 14 10.41 14C14.73 14 18.41 10.67 20.47 7.55L20.83 7L20.47 6.45C18.41 3.33 14.73 0 10.41 0ZM10.41 12C7.13 12 4.2 9.51 2.41 7C4.21 4.49 7.14 2 10.41 2C13.68 2 16.62 4.49 18.41 7C16.62 9.51 13.69 12 10.41 12Z" fill="black"/>
<path d="M10.4102 3C9.61903 3 8.84567 3.2346 8.18788 3.67412C7.53008 4.11365 7.01739 4.73836 6.71464 5.46927C6.41189 6.20017 6.33268 7.00444 6.48702 7.78036C6.64136 8.55629 7.02232 9.26902 7.58173 9.82843C8.14114 10.3878 8.85387 10.7688 9.6298 10.9231C10.4057 11.0775 11.21 10.9983 11.9409 10.6955C12.6718 10.3928 13.2965 9.88008 13.736 9.22228C14.1756 8.56448 14.4102 7.79113 14.4102 7C14.4102 5.93913 13.9887 4.92172 13.2386 4.17157C12.4884 3.42143 11.471 3 10.4102 3ZM10.4102 9C10.0146 9 9.62792 8.8827 9.29902 8.66294C8.97012 8.44318 8.71377 8.13082 8.5624 7.76537C8.41102 7.39991 8.37142 6.99778 8.44859 6.60982C8.52576 6.22186 8.71624 5.86549 8.99595 5.58579C9.27565 5.30608 9.63202 5.1156 10.02 5.03843C10.4079 4.96126 10.8101 5.00087 11.1755 5.15224C11.541 5.30362 11.8533 5.55996 12.0731 5.88886C12.2929 6.21776 12.4102 6.60444 12.4102 7C12.4102 7.53043 12.1994 8.03914 11.8244 8.41421C11.4493 8.78929 10.9406 9 10.4102 9Z" fill="black"/>
</g>
</svg>
