<svg width="24" height="24" viewBox="0 0 24 24" fill="none" xmlns="http://www.w3.org/2000/svg">
<path opacity="0.51" fill-rule="evenodd" clip-rule="evenodd" d="M14 22H10C6.229 22 4.343 22 3.172 20.828C2 19.657 2 17.771 2 14V10C2 6.229 2 4.343 3.172 3.172C4.343 2 6.239 2 10.03 2C10.636 2 11.121 2 11.53 2.017C11.517 2.097 11.51 2.178 11.51 2.261L11.5 5.095C11.5 6.192 11.5 7.162 11.605 7.943C11.719 8.79 11.98 9.637 12.672 10.329C13.362 11.019 14.21 11.281 15.057 11.395C15.838 11.5 16.808 11.5 17.905 11.5H21.957C22 12.034 22 12.69 22 13.563V14C22 17.771 22 19.657 20.828 20.828C19.657 22 17.771 22 14 22Z" fill="#094E85"/>
<path d="M11.51 2.26086L11.5 5.09586C11.5 6.19286 11.5 7.16186 11.605 7.94386C11.719 8.79086 11.98 9.63786 12.672 10.3289C13.362 11.0199 14.21 11.2819 15.057 11.3959C15.838 11.5009 16.808 11.5009 17.905 11.5009H21.957C21.97 11.6559 21.979 11.8219 21.985 12.0009H22C22 11.7329 22 11.5989 21.99 11.4409C21.913 10.4906 21.5821 9.5785 21.032 8.79986C20.938 8.67186 20.874 8.59586 20.747 8.44286C19.954 7.49486 18.91 6.31286 18 5.50086C17.19 4.77686 16.079 3.98586 15.11 3.33986C14.278 2.78386 13.862 2.50586 13.291 2.29986C13.1249 2.24042 12.956 2.18903 12.785 2.14586C12.401 2.05086 12.027 2.01786 11.5 2.00586L11.51 2.26086Z" fill="#094E85"/>
</svg>
