<svg width="19" height="23" viewBox="0 0 19 23" fill="none" xmlns="http://www.w3.org/2000/svg">
<path d="M8.55279 19.4102L13.7971 14.7737C16.6936 12.2132 16.9658 7.78935 14.4051 4.89296C11.8445 1.99657 7.42073 1.72437 4.52433 4.285C1.62794 6.84562 1.35574 11.2694 3.91637 14.1658L8.55279 19.4102ZM8.37909 22.2333L2.41797 15.4905C-0.874254 11.7665 -0.524293 6.07884 3.19964 2.78661C6.92358 -0.505629 12.6113 -0.155667 15.9036 3.56827C19.1958 7.29221 18.8458 12.9799 15.1219 16.2722L8.37909 22.2333ZM9.03793 11.5256C10.1404 11.5934 11.0891 10.7547 11.157 9.65221C11.2248 8.54973 10.3861 7.601 9.28359 7.53316C8.18107 7.46532 7.23237 8.30407 7.16453 9.40656C7.0967 10.5091 7.93542 11.4578 9.03793 11.5256ZM8.9151 13.5218C6.71013 13.3862 5.03264 11.4887 5.16831 9.28373C5.30398 7.07876 7.20144 5.40127 9.40641 5.53694C11.6113 5.67261 13.2889 7.57007 13.1532 9.77504C13.0175 11.98 11.12 13.6575 8.9151 13.5218Z" fill="#094E85"/>
</svg>
