<svg width="25" height="24" viewBox="0 0 25 24" fill="none" xmlns="http://www.w3.org/2000/svg">
<g clip-path="url(#clip0_431_892)">
<path d="M21.5589 4.60987C21.0481 4.09888 20.4417 3.69352 19.7742 3.41696C19.1068 3.14039 18.3914 2.99805 17.6689 2.99805C16.9464 2.99805 16.231 3.14039 15.5635 3.41696C14.8961 3.69352 14.2896 4.09888 13.7789 4.60987L12.7189 5.66987L11.6589 4.60987C10.6272 3.57818 9.2279 2.99858 7.76887 2.99858C6.30984 2.99858 4.91056 3.57818 3.87887 4.60987C2.84718 5.64156 2.26758 7.04084 2.26758 8.49987C2.26758 9.95891 2.84718 11.3582 3.87887 12.3899L4.93887 13.4499L12.7189 21.2299L20.4989 13.4499L21.5589 12.3899C22.0699 11.8791 22.4752 11.2727 22.7518 10.6052C23.0283 9.93777 23.1707 9.22236 23.1707 8.49987C23.1707 7.77738 23.0283 7.06198 22.7518 6.39452C22.4752 5.72706 22.0699 5.12063 21.5589 4.60987V4.60987Z" stroke="#878787" stroke-width="2" stroke-linecap="round" stroke-linejoin="round"/>
</g>
<defs>
<clipPath id="clip0_431_892">
<rect width="24" height="24" fill="white" transform="translate(0.71875)"/>
</clipPath>
</defs>
</svg>
