<svg width="25" height="24" viewBox="0 0 25 24" fill="none" xmlns="http://www.w3.org/2000/svg">
<g clip-path="url(#clip0_450_13963)">
<rect width="24" height="24" transform="translate(0.719727)" fill="white"/>
<path d="M21.5598 4.60987C21.0491 4.09888 20.4427 3.69352 19.7752 3.41696C19.1077 3.14039 18.3923 2.99805 17.6698 2.99805C16.9474 2.99805 16.2319 3.14039 15.5645 3.41696C14.897 3.69352 14.2906 4.09888 13.7798 4.60987L12.7198 5.66987L11.6598 4.60987C10.6282 3.57818 9.22888 2.99858 7.76985 2.99858C6.31081 2.99858 4.91154 3.57818 3.87985 4.60987C2.84815 5.64156 2.26855 7.04084 2.26855 8.49987C2.26855 9.95891 2.84815 11.3582 3.87985 12.3899L4.93985 13.4499L12.7198 21.2299L20.4998 13.4499L21.5598 12.3899C22.0708 11.8791 22.4762 11.2727 22.7528 10.6052C23.0293 9.93777 23.1717 9.22236 23.1717 8.49987C23.1717 7.77738 23.0293 7.06198 22.7528 6.39452C22.4762 5.72706 22.0708 5.12063 21.5598 4.60987Z" fill="#094E85" stroke="#094E85" stroke-width="2" stroke-linecap="round" stroke-linejoin="round"/>
</g>
<defs>
<clipPath id="clip0_450_13963">
<rect width="24" height="24" fill="white" transform="translate(0.719727)"/>
</clipPath>
</defs>
</svg>
