<svg width="29" height="28" viewBox="0 0 29 28" fill="none" xmlns="http://www.w3.org/2000/svg">
<path d="M14.5005 0.207031C22.3567 0.207031 28.7246 6.38193 28.7246 14.0001C28.7246 21.6183 22.3567 27.7932 14.5005 27.7932C6.6442 27.7932 0.276335 21.6183 0.276335 14.0001C0.276335 6.38193 6.6442 0.207031 14.5005 0.207031ZM10.5177 18.7902C10.5178 18.9566 10.5633 19.1199 10.6495 19.2637C10.7358 19.4075 10.8598 19.5266 11.0089 19.6089C11.158 19.6912 11.3269 19.7337 11.4985 19.7322C11.67 19.7306 11.8381 19.6851 11.9856 19.6001L20.2846 14.8101C20.4291 14.7265 20.5488 14.608 20.6319 14.4661C20.715 14.3242 20.7587 14.1639 20.7587 14.0007C20.7587 13.8375 20.715 13.6771 20.6319 13.5353C20.5488 13.3934 20.4291 13.2749 20.2846 13.1913L11.9856 8.40124C11.8383 8.31599 11.6702 8.27015 11.4986 8.26839C11.327 8.26663 11.158 8.30901 11.0088 8.39122C10.8596 8.47343 10.7356 8.59252 10.6493 8.73637C10.563 8.88021 10.5176 9.04366 10.5177 9.21007V18.7902Z" fill="#C7D7FE"/>
</svg>
