<svg width="32" height="32" viewBox="0 0 32 32" fill="none" xmlns="http://www.w3.org/2000/svg">
<path d="M26.6672 26.5058V29.3325L24.2672 27.7725L17.8806 15.7726C18.7605 15.4926 19.5605 15.0393 20.2539 14.4393L26.6672 26.5058ZM20.0005 9.33263C20.0005 10.3935 19.5791 11.4109 18.829 12.161C18.0788 12.9112 17.0614 13.3326 16.0006 13.3326H15.4139L7.73397 27.7725L5.33398 29.3325V26.5058L13.0539 11.9993C11.5873 10.3593 11.7206 7.82598 13.3739 6.34599C14.0939 5.70599 15.0272 5.33266 16.0006 5.33266V2.66602C16.3542 2.66602 16.6933 2.80649 16.9434 3.05654C17.1934 3.30658 17.3339 3.64572 17.3339 3.99934V5.57266C18.9339 6.13266 20.0005 7.63931 20.0005 9.33263ZM17.3339 9.33263C17.3339 8.97901 17.1934 8.63988 16.9434 8.38983C16.6933 8.13978 16.3542 7.99931 16.0006 7.99931C15.6469 7.99931 15.3078 8.13978 15.0578 8.38983C14.8077 8.63988 14.6672 8.97901 14.6672 9.33263C14.6672 9.68625 14.8077 10.0254 15.0578 10.2754C15.3078 10.5255 15.6469 10.666 16.0006 10.666C16.3542 10.666 16.6933 10.5255 16.9434 10.2754C17.1934 10.0254 17.3339 9.68625 17.3339 9.33263Z" fill="#094E85"/>
</svg>
