<svg width="35" height="34" viewBox="0 0 35 34" fill="none" xmlns="http://www.w3.org/2000/svg">
<g filter="url(#filter0_b_1290_1242)">
<circle cx="17.9219" cy="17" r="17" fill="white"/>
</g>
<path d="M17.9218 10.7017C16.8097 10.7016 15.7173 10.996 14.7558 11.5549C13.7944 12.1138 12.998 12.9174 12.4477 13.8838C11.8974 14.8503 11.6128 15.9452 11.6229 17.0573C11.6329 18.1694 11.9372 19.259 12.5048 20.2154C12.5485 20.2893 12.5766 20.3713 12.5874 20.4565C12.5983 20.5416 12.5916 20.628 12.5678 20.7105M17.9218 10.7017L17.9218 10.8017C16.8273 10.8016 15.7523 11.0913 14.8061 11.6414C13.8599 12.1914 13.0762 12.9822 12.5346 13.9333C11.993 14.8844 11.713 15.962 11.7228 17.0564C11.7327 18.1509 12.0322 19.2232 12.5908 20.1644L12.5909 20.1645C12.6415 20.2501 12.6741 20.3452 12.6867 20.4438C12.6992 20.5425 12.6915 20.6426 12.6639 20.7381L12.664 20.738L12.5678 20.7105M17.9218 10.7017C18.8987 10.7019 19.8622 10.9293 20.7361 11.366C21.6099 11.8027 22.3702 12.4367 22.9569 13.2179C23.5436 13.999 23.9405 14.9059 24.1163 15.8668C24.2921 16.8278 24.242 17.8165 23.97 18.7547C23.6979 19.693 23.2113 20.5551 22.5487 21.2729C21.8861 21.9907 21.0656 22.5446 20.152 22.8907C19.2385 23.2368 18.257 23.3657 17.285 23.2672C16.3131 23.1687 15.3774 22.8454 14.5519 22.323M17.9218 10.7017L17.9218 10.8017M12.5678 20.7105L12.6639 20.7382M12.5678 20.7105L11.9599 22.8364L12.0749 22.7981M12.6639 20.7382L17.9218 10.8017M12.6639 20.7382L12.0749 22.7981M12.6639 20.7382L13.9836 22.1626M12.0749 22.7981L12.0415 22.9146L14.0153 22.2575M12.0749 22.7981L13.9836 22.1626M14.0153 22.2575C14.104 22.2279 14.1982 22.2184 14.291 22.2297C14.3838 22.2411 14.473 22.2729 14.5519 22.323M14.0153 22.2575L13.9837 22.1626M14.0153 22.2575L13.9836 22.1626M14.5519 22.323L14.6054 22.2385M14.5519 22.323L14.6055 22.2385C14.6055 22.2385 14.6054 22.2385 14.6054 22.2385M17.9218 10.8017C18.8832 10.8019 19.8314 11.0257 20.6914 11.4555C21.5513 11.8853 22.2996 12.5092 22.8769 13.2779C23.4543 14.0466 23.8449 14.9391 24.018 15.8848C24.191 16.8305 24.1417 17.8035 23.8739 18.7269C23.6062 19.6502 23.1273 20.4987 22.4752 21.2051C21.8231 21.9115 21.0156 22.4566 20.1166 22.7972C19.2176 23.1378 18.2516 23.2647 17.2951 23.1677C16.3386 23.0707 15.4178 22.7526 14.6054 22.2385M17.9218 10.8017L13.9837 22.1626M14.6054 22.2385C14.5139 22.1805 14.4107 22.1436 14.3031 22.1305C14.1956 22.1174 14.0865 22.1283 13.9837 22.1626M13.9837 22.1626L13.9836 22.1626M13.9837 22.1626C13.9837 22.1626 13.9837 22.1626 13.9836 22.1626M13.9837 22.1626L13.9836 22.1626M10.2632 17.0004C10.2636 15.3143 10.8203 13.6755 11.8471 12.3381C12.8739 11.0007 14.3133 10.0395 15.9421 9.60365C17.5709 9.16781 19.298 9.28166 20.8555 9.92754C22.413 10.5734 23.7139 11.7152 24.5562 13.1759C25.3986 14.6365 25.7353 16.3342 25.5143 18.0058C25.2933 19.6774 24.5269 21.2293 23.3339 22.4208C22.1409 23.6123 20.588 24.3768 18.9162 24.5957C17.2593 24.8127 15.5773 24.4817 14.1266 23.654L11.2238 24.6224C11.2238 24.6225 11.2238 24.6225 11.2238 24.6225C11.0977 24.6645 10.9625 24.6714 10.8328 24.6423C10.7031 24.6132 10.5838 24.5492 10.4878 24.4573C10.3918 24.3653 10.3228 24.2489 10.2881 24.1206C10.2534 23.9922 10.2544 23.8569 10.291 23.7291M10.2632 17.0004L10.3872 23.7566M10.2632 17.0004C10.2615 18.2677 10.5755 19.5152 11.1767 20.6303M10.2632 17.0004L10.3632 17.0005L10.2632 17.0005C10.2632 17.0004 10.2632 17.0004 10.2632 17.0004ZM10.2632 17.0004L11.1767 20.6303M10.291 23.7291L10.3872 23.7566M10.291 23.7291L10.291 23.7291L10.3872 23.7566M10.291 23.7291L11.1767 20.6303M10.3872 23.7566L11.2841 20.6185L11.1964 20.6665C11.1898 20.6544 11.1832 20.6424 11.1767 20.6303M15.5161 15.2246C15.3792 15.3615 15.3023 15.5472 15.3023 15.7407C15.3023 15.9343 15.3792 16.12 15.5161 16.2568C15.6529 16.3937 15.8386 16.4706 16.0322 16.4706H19.8115C20.005 16.4706 20.1907 16.3937 20.3276 16.2568C20.4645 16.12 20.5414 15.9343 20.5414 15.7407C20.5414 15.5472 20.4645 15.3615 20.3276 15.2246C20.1907 15.0877 20.005 15.0108 19.8115 15.0108H16.0322C15.8386 15.0108 15.6529 15.0877 15.5161 15.2246ZM16.0322 17.5304C15.8386 17.5304 15.6529 17.6073 15.5161 17.7442C15.3792 17.881 15.3023 18.0667 15.3023 18.2603C15.3023 18.4538 15.3792 18.6395 15.5161 18.7764C15.6529 18.9132 15.8386 18.9901 16.0322 18.9901H18.5517C18.7453 18.9901 18.9309 18.9132 19.0678 18.7764C19.2047 18.6395 19.2816 18.4538 19.2816 18.2603C19.2816 18.0667 19.2047 17.881 19.0678 17.7442C18.9309 17.6073 18.7453 17.5304 18.5517 17.5304H16.0322Z" fill="#435FAD" stroke="#425EAB" stroke-width="0.2"/>
<defs>
<filter id="filter0_b_1290_1242" x="-103.078" y="-104" width="242" height="242" filterUnits="userSpaceOnUse" color-interpolation-filters="sRGB">
<feFlood flood-opacity="0" result="BackgroundImageFix"/>
<feGaussianBlur in="BackgroundImageFix" stdDeviation="52"/>
<feComposite in2="SourceAlpha" operator="in" result="effect1_backgroundBlur_1290_1242"/>
<feBlend mode="normal" in="SourceGraphic" in2="effect1_backgroundBlur_1290_1242" result="shape"/>
</filter>
</defs>
</svg>
