<svg width="24" height="24" viewBox="0 0 24 24" fill="none" xmlns="http://www.w3.org/2000/svg">
<path opacity="0.51" fill-rule="evenodd" clip-rule="evenodd" d="M14 22H10C6.229 22 4.343 22 3.172 20.828C2 19.657 2 17.771 2 14V10C2 6.229 2 4.343 3.172 3.172C4.343 2 6.239 2 10.03 2C10.636 2 11.121 2 11.53 2.017C11.517 2.097 11.51 2.178 11.51 2.261L11.5 5.095C11.5 6.192 11.5 7.162 11.605 7.943C11.719 8.79 11.98 9.637 12.672 10.329C13.362 11.019 14.21 11.281 15.057 11.395C15.838 11.5 16.808 11.5 17.905 11.5H21.957C22 12.034 22 12.69 22 13.563V14C22 17.771 22 19.657 20.828 20.828C19.657 22 17.771 22 14 22Z" fill="#094E85"/>
<path d="M11.51 2.26L11.5 5.095C11.5 6.192 11.5 7.161 11.605 7.943C11.719 8.79 11.98 9.637 12.672 10.328C13.362 11.019 14.21 11.281 15.057 11.395C15.838 11.5 16.808 11.5 17.905 11.5H21.957C21.97 11.655 21.979 11.821 21.985 12H22C22 11.732 22 11.598 21.99 11.44C21.913 10.4898 21.5821 9.57764 21.032 8.799C20.938 8.671 20.874 8.59501 20.747 8.44201C19.954 7.49401 18.91 6.312 18 5.5C17.19 4.776 16.079 3.985 15.11 3.339C14.278 2.783 13.862 2.505 13.291 2.299C13.1249 2.23957 12.956 2.18818 12.785 2.145C12.401 2.05 12.027 2.017 11.5 2.005L11.51 2.26Z" fill="#094E85"/>
</svg>
