<svg width="12" height="12" viewBox="0 0 12 12" fill="none" xmlns="http://www.w3.org/2000/svg">
<g clip-path="url(#clip0_1349_797)">
<path fill-rule="evenodd" clip-rule="evenodd" d="M8.19694 1.01044L8.22994 1.01944C8.77994 1.16694 9.21544 1.28344 9.55794 1.40744C9.90844 1.53394 10.1944 1.67844 10.4299 1.89894C10.7727 2.22021 11.0125 2.6359 11.1189 3.09344C11.1924 3.40744 11.1749 3.72744 11.1089 4.09394C11.0454 4.45294 10.9289 4.88844 10.7814 5.43794L10.5134 6.43744C10.3664 6.98694 10.2494 7.42244 10.1259 7.76494C9.99895 8.11544 9.85444 8.40144 9.63394 8.63694C9.32317 8.96878 8.92369 9.20444 8.48294 9.31594C8.35381 9.612 8.16564 9.8786 7.92994 10.0994C7.69444 10.3199 7.40844 10.4644 7.05794 10.5914C6.71544 10.7154 6.27994 10.8319 5.73044 10.9794L5.69694 10.9884C5.14694 11.1354 4.71194 11.2519 4.35294 11.3164C3.98644 11.3819 3.66644 11.3994 3.35194 11.3264C2.89446 11.2196 2.47894 10.9795 2.15794 10.6364C1.93794 10.4014 1.79294 10.1154 1.66594 9.76495C1.54244 9.42245 1.42594 8.98694 1.27844 8.43694L1.01044 7.43794C0.863444 6.88794 0.746444 6.45294 0.682444 6.09394C0.616944 5.72744 0.599444 5.40744 0.672444 5.09294C0.77929 4.63546 1.01941 4.21994 1.36244 3.89894C1.59744 3.67894 1.88344 3.53394 2.23394 3.40694C2.57644 3.28344 3.01194 3.16694 3.56144 3.01944L3.57844 3.01444L3.95394 2.91444C4.14994 2.21494 4.32194 1.72044 4.65794 1.36194C4.97901 1.0191 5.39452 0.779152 5.85194 0.672444C6.16644 0.599444 6.48594 0.616944 6.85294 0.682444C7.21144 0.746444 7.64694 0.863444 8.19694 1.01044ZM3.72744 3.75144C3.18094 3.89794 2.78944 4.00394 2.48844 4.11244C2.18344 4.22244 2.00494 4.32444 1.87494 4.44644C1.64027 4.6661 1.47601 4.95042 1.40294 5.26344C1.36294 5.43744 1.36344 5.64344 1.42094 5.96194C1.47844 6.28544 1.58694 6.69044 1.73944 7.26044L1.99844 8.22644C2.15094 8.79644 2.25994 9.20144 2.37144 9.50994C2.48144 9.81495 2.58344 9.99394 2.70544 10.1239C2.9251 10.3586 3.20942 10.5229 3.52244 10.5959C3.69594 10.6359 3.90244 10.6349 4.22094 10.5779C4.54444 10.5204 4.94944 10.4119 5.51944 10.2594C6.08944 10.1064 6.49444 9.99794 6.80344 9.88594C7.10794 9.77594 7.28694 9.67394 7.41694 9.55244C7.48594 9.48744 7.54844 9.41745 7.60494 9.34295C7.51219 9.32969 7.41982 9.31385 7.32794 9.29544C6.99194 9.22844 6.58794 9.12045 6.09044 8.98695L6.06144 8.97944C5.51194 8.83194 5.07644 8.71544 4.73394 8.59144C4.38344 8.46494 4.09744 8.32044 3.86194 8.09994C3.51901 7.77875 3.27906 7.36305 3.17244 6.90544C3.09944 6.59144 3.11694 6.27144 3.18244 5.90444C3.24644 5.54594 3.36344 5.11044 3.51044 4.56094L3.72744 3.75144ZM6.72094 1.42094C6.40194 1.36344 6.19594 1.36244 6.02244 1.40294C5.70942 1.47601 5.4251 1.64027 5.20544 1.87494C4.98744 2.10744 4.85294 2.46744 4.61994 3.32144C4.58194 3.46044 4.54194 3.60994 4.49844 3.77244L4.23944 4.73844C4.08694 5.30844 3.97844 5.71344 3.92094 6.03694C3.86344 6.35544 3.86244 6.56194 3.90294 6.73544C3.97601 7.04847 4.14027 7.33279 4.37494 7.55244C4.50494 7.67444 4.68394 7.77594 4.98844 7.88644C5.29744 7.99794 5.70244 8.10644 6.27244 8.25944C6.78494 8.39694 7.16494 8.49844 7.47394 8.55944C7.78144 8.62094 7.99044 8.63594 8.16144 8.61494C8.19894 8.60994 8.23444 8.60394 8.26944 8.59594C8.58247 8.52288 8.86679 8.35862 9.08644 8.12394C9.20844 7.99394 9.31044 7.81494 9.42044 7.51044C9.53194 7.20144 9.64044 6.79644 9.79344 6.22644L10.0524 5.26044C10.2049 4.69044 10.3134 4.28544 10.3709 3.96194C10.4279 3.64344 10.4294 3.43694 10.3889 3.26344C10.3159 2.95042 10.1516 2.6661 9.91694 2.44644C9.78694 2.32444 9.60794 2.22294 9.30344 2.11244C8.99395 2.00094 8.58944 1.89244 8.01944 1.73944C7.44944 1.58694 7.04444 1.47844 6.72094 1.42094ZM5.52594 4.90294C5.53871 4.85537 5.56072 4.81077 5.59072 4.7717C5.62072 4.73263 5.65812 4.69986 5.7008 4.67525C5.74347 4.65064 5.79057 4.63468 5.83941 4.62828C5.88825 4.62188 5.93787 4.62516 5.98544 4.63794L8.40044 5.28494C8.49385 5.31303 8.57263 5.3764 8.62009 5.46161C8.66754 5.54682 8.67993 5.64716 8.65462 5.74135C8.62932 5.83555 8.56831 5.91617 8.48455 5.96613C8.40078 6.01609 8.30085 6.03145 8.20594 6.00894L5.79094 5.36194C5.69497 5.33616 5.61315 5.27334 5.56346 5.18728C5.51378 5.10122 5.50028 4.99895 5.52594 4.90294ZM5.13744 6.35194C5.1502 6.30431 5.17223 6.25967 5.20227 6.22056C5.2323 6.18145 5.26975 6.14865 5.31248 6.12404C5.35521 6.09942 5.40237 6.08348 5.45127 6.07711C5.50017 6.07075 5.54984 6.07409 5.59744 6.08694L7.04594 6.47494C7.14202 6.50067 7.22394 6.56351 7.27368 6.64963C7.32343 6.73576 7.33692 6.83812 7.31119 6.93419C7.28547 7.03027 7.22263 7.11219 7.1365 7.16193C7.05038 7.21168 6.94802 7.22517 6.85194 7.19944L5.40294 6.81094C5.30697 6.78516 5.22515 6.72234 5.17546 6.63628C5.12578 6.55022 5.11228 6.44795 5.13794 6.35194H5.13744Z" fill="#98A2B3"/>
</g>
<defs>
<clipPath id="clip0_1349_797">
<rect width="12" height="12" fill="white"/>
</clipPath>
</defs>
</svg>
