<svg width="28" height="28" viewBox="0 0 28 28" fill="none" xmlns="http://www.w3.org/2000/svg">
<path d="M14.7708 16.8423L13.9998 14.9173L13.2289 16.8423L11.2498 17.0183L12.7532 18.3832L12.3003 20.4173L13.9998 19.3366L15.6993 20.4173L15.2465 18.3832L16.7498 17.0183L14.7708 16.8423ZM8.49984 4.83398H19.4998V6.66732H8.49984V4.83398ZM6.6665 8.50065H21.3332V10.334H6.6665V8.50065Z" fill="#094E85"/>
<path d="M21.3335 13.9993V21.3327H6.66683V13.9993H21.3335ZM21.3335 12.166H6.66683C6.1806 12.166 5.71428 12.3592 5.37047 12.703C5.02665 13.0468 4.8335 13.5131 4.8335 13.9993V21.3327C4.8335 21.8189 5.02665 22.2852 5.37047 22.629C5.71428 22.9729 6.1806 23.166 6.66683 23.166H21.3335C21.8197 23.166 22.286 22.9729 22.6299 22.629C22.9737 22.2852 23.1668 21.8189 23.1668 21.3327V13.9993C23.1668 13.5131 22.9737 13.0468 22.6299 12.703C22.286 12.3592 21.8197 12.166 21.3335 12.166Z" fill="#094E85"/>
</svg>
