<svg width="33" height="32" viewBox="0 0 33 32" fill="none" xmlns="http://www.w3.org/2000/svg">
<path d="M16.5 2.20703C24.3563 2.20703 30.7241 8.38193 30.7241 16.0001C30.7241 23.6183 24.3563 29.7932 16.5 29.7932C8.64371 29.7932 2.27585 23.6183 2.27585 16.0001C2.27585 8.38193 8.64371 2.20703 16.5 2.20703ZM12.5172 20.7902C12.5173 20.9566 12.5628 21.1199 12.649 21.2637C12.7353 21.4075 12.8593 21.5266 13.0084 21.6089C13.1575 21.6912 13.3265 21.7337 13.498 21.7322C13.6696 21.7306 13.8376 21.6851 13.9852 21.6001L22.2841 16.8101C22.4286 16.7265 22.5483 16.608 22.6314 16.4661C22.7145 16.3242 22.7582 16.1639 22.7582 16.0007C22.7582 15.8375 22.7145 15.6771 22.6314 15.5353C22.5483 15.3934 22.4286 15.2749 22.2841 15.1913L13.9852 10.4012C13.8378 10.316 13.6697 10.2701 13.4981 10.2684C13.3266 10.2666 13.1575 10.309 13.0083 10.3912C12.8591 10.4734 12.7351 10.5925 12.6488 10.7364C12.5625 10.8802 12.5171 11.0437 12.5172 11.2101V20.7902Z" fill="#094E85"/>
</svg>
