<svg width="16" height="16" viewBox="0 0 16 16" fill="none" xmlns="http://www.w3.org/2000/svg">
<path d="M3.20833 11.5937H2.3099C1.91313 11.5926 1.53295 11.4408 1.25239 11.1715C0.971827 10.9021 0.813685 10.5371 0.8125 10.1562V4.40625C0.813685 4.02535 0.971827 3.66038 1.25239 3.39104C1.53295 3.1217 1.91313 2.96989 2.3099 2.96875H13.6901C14.0869 2.96989 14.4671 3.1217 14.7476 3.39104C15.0282 3.66038 15.1863 4.02535 15.1875 4.40625V10.1562C15.1863 10.5371 15.0282 10.9021 14.7476 11.1715C14.4671 11.4408 14.0869 11.5926 13.6901 11.5937H12.7917" stroke="#545454" stroke-opacity="0.99" stroke-width="1.2" stroke-linejoin="round"/>
<path d="M3.92469 7.28125H12.0753C12.6033 7.28125 13.0312 7.69513 13.0312 8.20567V14.2631C13.0312 14.7736 12.6033 15.1875 12.0753 15.1875H3.92469C3.39674 15.1875 2.96875 14.7736 2.96875 14.2631V8.20567C2.96875 7.69513 3.39674 7.28125 3.92469 7.28125Z" stroke="#545454" stroke-opacity="0.99" stroke-width="1.2" stroke-linejoin="round"/>
<path d="M2.96875 2.96875V2.16016C2.96999 1.80306 3.13604 1.4609 3.43063 1.2084C3.72522 0.955894 4.12441 0.813566 4.54102 0.8125H11.459C11.8756 0.813566 12.2748 0.955894 12.5694 1.2084C12.864 1.4609 13.03 1.80306 13.0312 2.16016V2.96875" stroke="#545454" stroke-opacity="0.99" stroke-width="1.2" stroke-linejoin="round"/>
<path d="M2.96875 5.84375C2.5718 5.84375 2.25 5.52195 2.25 5.125C2.25 4.72805 2.5718 4.40625 2.96875 4.40625C3.3657 4.40625 3.6875 4.72805 3.6875 5.125C3.6875 5.52195 3.3657 5.84375 2.96875 5.84375Z" fill="#545454"/>
</svg>
