<svg width="14" height="12" viewBox="0 0 14 12" fill="none" xmlns="http://www.w3.org/2000/svg">
<path fill-rule="evenodd" clip-rule="evenodd" d="M11.8125 11.0654C11.5267 11.1465 11.2233 11.1465 10.9375 11.0654V10.0339L11.375 9.60512L11.8125 10.0339V11.0654ZM13.367 2.85004L8.02473 0.232173C7.70566 0.0794065 7.35523 0 7.00011 0C6.645 0 6.29456 0.0794065 5.97549 0.232173L0.632606 2.85004C0.442454 2.94335 0.282562 3.0867 0.170835 3.26402C0.0591068 3.44134 -4.58874e-05 3.64564 2.67084e-08 3.85404C4.59408e-05 4.06244 0.0592886 4.26672 0.171094 4.44399C0.2829 4.62127 0.442855 4.76455 0.633049 4.85778L2.1875 5.61965V8.14146C2.1875 9.5837 4.3015 10.7139 6.99998 10.7139C7.81068 10.7139 8.6091 10.6088 9.30909 10.4104L9.06581 9.58641C8.4437 9.76305 7.72925 9.8565 6.99995 9.8565C4.67944 9.8565 3.06244 8.95231 3.06244 8.14157V6.04836L5.97523 7.47604C6.29343 7.63175 6.64424 7.71277 6.99991 7.7127C7.35557 7.71262 7.70634 7.63145 8.02447 7.47561L9.8204 6.5954L9.42926 5.8284L7.63289 6.70861C7.43581 6.80319 7.21928 6.85236 6.99983 6.85236C6.78039 6.85236 6.56385 6.80319 6.36678 6.70861L1.02507 4.09078C0.980053 4.06892 0.942157 4.03518 0.915648 3.99335C0.889138 3.95153 0.875069 3.90328 0.875023 3.85404C0.874977 3.80481 0.888956 3.75654 0.915387 3.71466C0.941818 3.67279 0.979651 3.63898 1.02463 3.61703L6.36692 0.999171C6.564 0.90459 6.78054 0.85542 6.99998 0.85542C7.21942 0.85542 7.43596 0.90459 7.63304 0.999171L12.9749 3.61703C13.0199 3.63891 13.0578 3.67267 13.0843 3.7145C13.1108 3.75633 13.1249 3.80458 13.1249 3.85382C13.1249 3.90306 13.1109 3.95132 13.0845 3.99319C13.0581 4.03505 13.0202 4.06885 12.9752 4.09078L11.3452 4.88993L7.14437 3.44935L6.85563 4.25879L10.9375 5.65902V8.82137L10.0625 9.67885V11.6219L10.3044 11.7402C10.3587 11.7668 10.8495 12 11.375 12C11.9005 12 12.3913 11.7668 12.4456 11.7402L12.6875 11.6219V9.67889L11.8125 8.8214V5.61965L13.3674 4.85778C13.5575 4.76447 13.7174 4.62112 13.8292 4.4438C13.9409 4.26648 14 4.06218 14 3.85377C14 3.64537 13.9407 3.4411 13.8289 3.26382C13.7171 3.08655 13.5571 2.94327 13.367 2.85004Z" fill="#0E294D"/>
</svg>
