<svg width="30" height="30" viewBox="0 0 30 30" fill="none" xmlns="http://www.w3.org/2000/svg">
<path d="M18.6814 15.477L11.3523 8.14786V6.71257H10.1308C9.78467 6.71257 9.49436 6.59571 9.25983 6.362C9.0253 6.12828 8.90844 5.83797 8.90925 5.49105C8.90925 5.14496 9.02652 4.85464 9.26105 4.62011C9.49558 4.38558 9.78549 4.26872 10.1308 4.26954H19.9029C20.249 4.26954 20.5393 4.3868 20.7739 4.62133C21.0084 4.85586 21.1253 5.14577 21.1244 5.49105C21.1244 5.83715 21.0072 6.12747 20.7726 6.362C20.5381 6.59653 20.2482 6.71339 19.9029 6.71257H18.6814V15.477ZM23.6896 27.3562L22.5903 26.2569H6.46621C5.42792 26.2569 4.68972 25.7939 4.2516 24.868C3.81348 23.9421 3.92057 23.0817 4.57286 22.2869L10.9248 14.5914L2.92381 6.59042C2.69986 6.36648 2.58789 6.08146 2.58789 5.73536C2.58789 5.38926 2.69986 5.10424 2.92381 4.8803C3.14775 4.65635 3.43277 4.54438 3.77887 4.54438C4.12497 4.54438 4.40999 4.65635 4.63393 4.8803L25.3998 25.6461C25.6237 25.8701 25.7357 26.1551 25.7357 26.5012C25.7357 26.8473 25.6237 27.1323 25.3998 27.3562C25.1758 27.5802 24.8908 27.6922 24.5447 27.6922C24.1986 27.6922 23.9136 27.5802 23.6896 27.3562Z" fill="#094E85"/>
</svg>
