<svg width="49" height="46" viewBox="0 0 49 46" fill="none" xmlns="http://www.w3.org/2000/svg">
<rect x="0.5" y="0.5" width="48" height="45" rx="12.5" fill="white" stroke="#E8E6EA"/>
<path fill-rule="evenodd" clip-rule="evenodd" d="M33.0346 15.2511C33.2674 15.4839 33.3463 15.8295 33.2375 16.1403L27.5375 32.426C27.4214 32.7578 27.1146 32.985 26.7634 32.9993C26.4123 33.0136 26.088 32.8122 25.9452 32.491L22.822 25.4637L15.7947 22.3404C15.4735 22.1977 15.272 21.8734 15.2864 21.5222C15.3007 21.1711 15.5279 20.8642 15.8596 20.7481L32.1453 15.0481C32.4561 14.9394 32.8018 15.0182 33.0346 15.2511ZM24.4937 25.0041L26.6337 29.8191L30.3787 19.1192L24.4937 25.0041ZM29.1665 17.907L18.4666 21.652L23.2815 23.792L29.1665 17.907Z" fill="#094E85"/>
</svg>
