<svg width="134" height="148" viewBox="0 0 134 148" fill="none" xmlns="http://www.w3.org/2000/svg">
<path fill-rule="evenodd" clip-rule="evenodd" d="M172.125 134.137C167.96 135.339 163.539 135.339 159.375 134.137V118.836L165.75 112.476L172.125 118.836V134.137ZM194.776 12.2755L116.932 -26.5561C112.282 -28.8221 107.176 -30 102.002 -30C96.8271 -30 91.7207 -28.8221 87.0714 -26.5561L9.21798 12.2755C6.44719 13.6597 4.11734 15.786 2.4893 18.4163C0.86127 21.0466 -0.000668645 24.077 3.8918e-07 27.1683C0.000669423 30.2596 0.86392 33.2897 2.49309 35.9193C4.12226 38.5488 6.45303 40.6741 9.22442 42.0571L31.8749 53.3581V90.765C31.8749 112.158 62.679 128.923 102 128.923C113.813 128.923 125.447 127.364 135.647 124.422L132.102 112.198C123.037 114.819 112.626 116.205 101.999 116.205C68.1862 116.205 44.6241 102.793 44.6241 90.7666V59.7173L87.0677 80.8946C91.7043 83.2043 96.8161 84.4061 101.999 84.405C107.181 84.4039 112.292 83.1999 116.928 80.8882L143.097 67.8318L137.398 56.4547L111.222 69.5111C108.35 70.914 105.195 71.6434 101.998 71.6434C98.8 71.6434 95.6447 70.914 92.773 69.5111L14.9367 30.68C14.2808 30.3557 13.7286 29.8551 13.3423 29.2347C12.956 28.6143 12.751 27.8986 12.7503 27.1683C12.7497 26.438 12.9534 25.7219 13.3385 25.1008C13.7236 24.4797 14.2749 23.9782 14.9303 23.6527L92.7752 -15.179C95.6469 -16.5819 98.8021 -17.3113 102 -17.3113C105.197 -17.3113 108.353 -16.5819 111.224 -15.179L189.063 23.6527C189.719 23.9772 190.271 24.4779 190.657 25.0984C191.043 25.7189 191.248 26.4347 191.249 27.165C191.249 27.8953 191.045 28.6113 190.66 29.2323C190.274 29.8533 189.723 30.3547 189.068 30.68L165.316 42.534L104.104 21.1654L99.8963 33.1721L159.375 53.9422V100.85L146.625 113.57V142.391L150.15 144.146C150.941 144.541 158.093 148 165.75 148C173.407 148 180.559 144.54 181.35 144.146L184.875 142.391V113.57L172.125 100.851V53.3581L194.782 42.0571C197.553 40.6729 199.883 38.5466 201.511 35.9164C203.139 33.2861 204.001 30.2556 204 27.1643C203.999 24.073 203.136 21.043 201.507 18.4134C199.878 15.7838 197.547 13.6585 194.776 12.2755Z" fill="#0E294D" fill-opacity="0.03"/>
</svg>
