<svg width="20" height="20" viewBox="0 0 20 20" fill="none" xmlns="http://www.w3.org/2000/svg">
<path d="M17.9422 8.56768L14.1922 12.3177C14.1048 12.4052 13.9934 12.4648 13.8721 12.4889C13.7508 12.5131 13.625 12.5007 13.5108 12.4534C13.3965 12.406 13.2988 12.3259 13.2302 12.223C13.1615 12.1201 13.1249 11.9992 13.125 11.8755V8.75049H12.8906C11.3661 8.75007 9.88475 9.25636 8.67941 10.1897C7.47407 11.1231 6.61315 12.4307 6.23203 13.9067C6.19059 14.0673 6.08706 14.2049 5.94421 14.2891C5.80136 14.3734 5.63089 14.3974 5.47031 14.356C5.30973 14.3145 5.17219 14.211 5.08795 14.0681C5.0037 13.9253 4.97965 13.7548 5.02109 13.5942C5.47079 11.8493 6.48809 10.3036 7.91281 9.20036C9.33752 8.09713 11.0887 7.49912 12.8906 7.50049H13.125V4.37549C13.1249 4.25181 13.1615 4.13087 13.2302 4.028C13.2988 3.92513 13.3965 3.84495 13.5108 3.7976C13.625 3.75026 13.7508 3.73788 13.8721 3.76204C13.9934 3.78619 14.1048 3.8458 14.1922 3.9333L17.9422 7.6833C18.0003 7.74135 18.0464 7.81028 18.0779 7.88615C18.1093 7.96203 18.1255 8.04336 18.1255 8.12549C18.1255 8.20763 18.1093 8.28896 18.0779 8.36483C18.0464 8.4407 18.0003 8.50963 17.9422 8.56768ZM15 16.2505H3.125V6.87549C3.125 6.70973 3.05915 6.55076 2.94194 6.43355C2.82473 6.31634 2.66576 6.25049 2.5 6.25049C2.33424 6.25049 2.17527 6.31634 2.05806 6.43355C1.94085 6.55076 1.875 6.70973 1.875 6.87549V16.2505C1.875 16.582 2.0067 16.9 2.24112 17.1344C2.47554 17.3688 2.79348 17.5005 3.125 17.5005H15C15.1658 17.5005 15.3247 17.4346 15.4419 17.3174C15.5592 17.2002 15.625 17.0413 15.625 16.8755C15.625 16.7097 15.5592 16.5508 15.4419 16.4335C15.3247 16.3163 15.1658 16.2505 15 16.2505Z" fill="#545454"/>
</svg>
