<svg width="28" height="28" viewBox="0 0 28 28" fill="none" xmlns="http://www.w3.org/2000/svg">
<path fill-rule="evenodd" clip-rule="evenodd" d="M16.1017 9.33203C15.3943 9.3314 14.7316 9.50983 14 9.82533C13.2684 9.50983 12.6057 9.3314 11.8983 9.33203C11.1085 9.33273 10.3305 9.55693 9.4101 9.9407C9.16173 10.0443 9 10.287 9 10.556V15.9987C9 16.2133 9.1033 16.4148 9.27757 16.54C9.4518 16.6653 9.6757 16.699 9.87913 16.6306C10.7184 16.3484 11.3186 16.2285 11.8788 16.2299C12.4367 16.2313 13.0039 16.3533 13.7775 16.6272C13.9215 16.6781 14.0785 16.6781 14.2225 16.6272C14.9961 16.3533 15.5633 16.2313 16.1212 16.2299C16.6814 16.2285 17.2816 16.3484 18.1209 16.6306C18.3243 16.699 18.5482 16.6653 18.7224 16.54C18.8967 16.4148 19 16.2133 19 15.9987V10.556C19 10.287 18.8383 10.0443 18.5899 9.9407C17.6695 9.55693 16.8915 9.33273 16.1017 9.33203ZM10.3333 15.1047V11.0087C10.9754 10.7686 11.4567 10.6658 11.8995 10.6654C12.331 10.665 12.7712 10.7619 13.3333 10.9915V15.0946C12.8383 14.9673 12.3684 14.8978 11.8822 14.8966C11.3775 14.8953 10.8766 14.9676 10.3333 15.1047ZM14.6667 15.0946V10.9915C15.2288 10.7619 15.669 10.665 16.1005 10.6654C16.5433 10.6658 17.0246 10.7686 17.6667 11.0087V15.1047C17.1234 14.9676 16.6225 14.8953 16.1178 14.8966C15.6316 14.8978 15.1617 14.9673 14.6667 15.0946Z" fill="#094E85"/>
<path fill-rule="evenodd" clip-rule="evenodd" d="M14 3C8.47717 3 4 7.47717 4 13C4 18.5228 8.47717 23 14 23C19.5228 23 24 18.5228 24 13C24 7.47717 19.5228 3 14 3ZM6.66667 12.3333H5.35859C5.50253 10.4412 6.25401 8.719 7.41837 7.3612L8.3432 8.286C8.60353 8.54637 9.02567 8.54637 9.286 8.286C9.54637 8.02567 9.54637 7.60353 9.286 7.3432L8.3612 6.41837C9.719 5.25401 11.4412 4.50253 13.3333 4.35859V5.66667C13.3333 6.03487 13.6318 6.33333 14 6.33333C14.3682 6.33333 14.6667 6.03487 14.6667 5.66667V4.35859C16.5588 4.50253 18.281 5.25401 19.6388 6.41837L18.714 7.3432C18.4536 7.60357 18.4536 8.02567 18.714 8.28603C18.9743 8.54637 19.3964 8.54637 19.6568 8.28603L20.5816 7.3612C21.746 8.719 22.4975 10.4412 22.6414 12.3333H21.3333C20.9651 12.3333 20.6667 12.6318 20.6667 13C20.6667 13.3682 20.9651 13.6667 21.3333 13.6667H22.6414C22.4975 15.5588 21.746 17.281 20.5816 18.6388L19.6568 17.714C19.3964 17.4536 18.9743 17.4536 18.714 17.714C18.4536 17.9743 18.4536 18.3964 18.714 18.6568L19.6388 19.5816C18.1231 20.8814 16.1533 21.6667 14 21.6667C9.43783 21.6667 5.69901 18.1416 5.35859 13.6667H6.66667C7.03487 13.6667 7.33333 13.3682 7.33333 13C7.33333 12.6318 7.03487 12.3333 6.66667 12.3333Z" fill="#094E85"/>
</svg>
