<svg width="21" height="20" viewBox="0 0 21 20" fill="none" xmlns="http://www.w3.org/2000/svg">
<path d="M20.4026 2.59129H17.3904V1.95801C17.3904 0.97506 16.5919 0.173828 15.6062 0.173828H14.4195C14.0918 0.173828 13.8248 0.440905 13.8248 0.768557V2.59129H1.30518C0.977526 2.59129 0.710449 2.85837 0.710449 3.18602V17.4485C0.710449 17.7761 0.977526 18.0432 1.30518 18.0432H9.06969C9.71949 18.0432 10.2591 18.5691 10.2591 19.2327C10.2591 19.5576 10.5207 19.8274 10.8566 19.8274C11.1843 19.8274 11.4514 19.5603 11.4514 19.2327V19.1666C11.4872 18.5416 12.0048 18.046 12.6381 18.046H20.4053C20.733 18.046 21.0001 17.7789 21.0001 17.4512V3.18877C20.9973 2.85837 20.7302 2.59129 20.4026 2.59129ZM10.2591 17.1759C9.90947 16.9722 9.50197 16.8565 9.06969 16.8565H1.89991V3.78075H10.2591V17.1759ZM15.6062 16.8538C15.273 16.8538 12.9299 16.8538 12.6353 16.8538C12.203 16.8538 11.7983 16.9694 11.4486 17.1732V3.78075H13.8248V15.0723C13.8248 15.4 14.0918 15.6671 14.4195 15.6671H15.6062C15.9338 15.6671 16.2009 15.9341 16.2009 16.2618C16.2009 16.5894 15.9338 16.8538 15.6062 16.8538ZM16.2009 14.5795C15.7714 14.4253 15.474 14.4941 15.0115 14.4776V1.36329H15.6062C15.9338 1.36329 16.2009 1.63036 16.2009 1.95801V14.5795ZM19.8078 16.8538H17.2858C17.4372 16.4297 17.3876 17.3686 17.3904 3.77799H19.8078V16.8538Z" fill="#094E85"/>
<path d="M8.47773 5.83984H3.72266C3.39501 5.83984 3.12793 6.10692 3.12793 6.43457C3.12793 6.76222 3.39501 7.0293 3.72266 7.0293H8.47773C8.80539 7.0293 9.07246 6.76222 9.07246 6.43457C9.07246 6.10692 8.80539 5.83984 8.47773 5.83984Z" fill="#094E85"/>
<path d="M8.47773 14.1602H3.72266C3.39501 14.1602 3.12793 14.4272 3.12793 14.7549C3.12793 15.0825 3.39501 15.3496 3.72266 15.3496H8.47773C8.80539 15.3496 9.07246 15.0825 9.07246 14.7549C9.06971 14.4245 8.80539 14.1602 8.47773 14.1602Z" fill="#094E85"/>
<path d="M4.58446 12.9084L8.11153 11.127C8.54381 10.9094 8.54657 10.2872 8.11153 10.0669L4.58446 8.28272C4.19073 8.08447 3.72266 8.37083 3.72266 8.81412V12.3797C3.72266 12.823 4.19348 13.1066 4.58446 12.9084Z" fill="#094E85"/>
<path d="M4.90967 9.7793L6.5259 10.5943L4.90967 11.412V9.7793Z" fill="#094E85"/>
</svg>
