<svg width="29" height="28" viewBox="0 0 29 28" fill="none" xmlns="http://www.w3.org/2000/svg">
<path d="M11.5408 22.2385C11.2117 23.0855 10.3671 23.6582 9.42934 23.6582H7.47929C5.02478 23.6582 2.96191 21.7405 2.96191 19.2868V10.736V10.7238L2.96221 10.7116C2.98772 9.66443 3.50231 8.6975 4.34145 8.07027L10.9554 2.95864C12.461 1.71949 14.662 1.68564 16.2076 2.87695C16.2082 2.87739 16.2087 2.87782 16.2093 2.87826L22.995 8.07279L23.0039 8.07961L23.0127 8.08662C23.8198 8.73372 24.2984 9.70194 24.2984 10.7359V10.736V19.2955C24.2984 20.4685 23.811 21.5843 22.9587 22.3992C22.1081 23.2123 20.9639 23.6607 19.7802 23.6582M11.5408 22.2385L16.537 21.4528L15.537 21.4452C15.537 21.4467 15.537 21.4481 15.537 21.4496C15.5337 22.0474 15.7792 22.6131 16.2048 23.024C16.63 23.4345 17.1997 23.6582 17.7854 23.6582H19.7802M11.5408 22.2385L11.7142 22.1832V21.4528V18.4483C11.7142 18.2731 11.8748 18.0595 12.1631 18.0595H15.0881C15.2205 18.0595 15.3394 18.1103 15.4207 18.1882L16.1126 17.4663L11.5408 22.2385ZM19.7802 23.6582C19.7796 23.6582 19.7791 23.6582 19.7785 23.6582L19.781 22.6582V23.6582H19.7802Z" stroke="#878787" stroke-width="2"/>
</svg>
