<svg width="25" height="24" viewBox="0 0 25 24" fill="none" xmlns="http://www.w3.org/2000/svg">
<path d="M8.89471 20.5038V17.1913C8.89471 16.3457 9.58522 15.6602 10.437 15.6602H13.5507C13.9597 15.6602 14.352 15.8215 14.6413 16.1086C14.9305 16.3958 15.093 16.7852 15.093 17.1913V20.5038C15.0904 20.8554 15.2293 21.1934 15.4788 21.4429C15.7283 21.6924 16.0678 21.8327 16.4219 21.8327H18.5462C19.5383 21.8352 20.4907 21.4458 21.1931 20.7502C21.8956 20.0547 22.2904 19.1102 22.2904 18.1253V8.68845C22.2903 7.89285 21.9351 7.13818 21.3204 6.62774L14.0939 0.898207C12.8368 -0.106376 11.0357 -0.0739404 9.81621 0.975243L2.75463 6.62774C2.11083 7.12313 1.72605 7.88004 1.70703 8.68845V18.1157C1.70703 20.1685 3.38336 21.8327 5.45122 21.8327H7.52701C8.26253 21.8327 8.86028 21.2436 8.86561 20.5134L8.89471 20.5038Z" fill="#094E85"/>
</svg>
