<svg width="44" height="43" viewBox="0 0 44 43" fill="none" xmlns="http://www.w3.org/2000/svg">
<path fill-rule="evenodd" clip-rule="evenodd" d="M33.8972 42.89C33.5533 42.8914 33.2141 42.8063 32.908 42.6417L21.9409 36.6159L10.9738 42.6417C10.2472 43.0427 9.36654 42.9746 8.70385 42.4661C8.04117 41.9577 7.71209 41.0977 7.85567 40.2494L10.0061 27.5432L1.14637 18.5157C0.583086 17.9257 0.376277 17.0575 0.60877 16.2588C0.863044 15.4405 1.53866 14.8452 2.35061 14.7241L14.608 12.8509L20.0055 1.27313C20.3648 0.494527 21.1166 0 21.9409 0C22.7652 0 23.5169 0.494527 23.8763 1.27313L29.3383 12.8284L41.5957 14.7016C42.4076 14.8227 43.0832 15.4179 43.3375 16.2362C43.57 17.035 43.3632 17.9032 42.7999 18.4931L33.9402 27.5206L36.0906 40.2269C36.2474 41.0908 35.9117 41.9716 35.2304 42.4837C34.841 42.7701 34.3722 42.913 33.8972 42.89Z" fill="#ACACAC"/>
</svg>
