<svg width="43" height="43" viewBox="0 0 43 43" fill="none" xmlns="http://www.w3.org/2000/svg">
<path fill-rule="evenodd" clip-rule="evenodd" d="M33.3823 42.89C33.0384 42.8914 32.6992 42.8063 32.3931 42.6417L21.426 36.6159L10.4589 42.6417C9.73232 43.0427 8.85165 42.9746 8.18896 42.4661C7.52627 41.9577 7.1972 41.0977 7.34077 40.2494L9.49119 27.5432L0.631481 18.5157C0.0681934 17.9257 -0.138616 17.0575 0.0938774 16.2588C0.348151 15.4405 1.02377 14.8452 1.83571 14.7241L14.0931 12.8509L19.4906 1.27313C19.8499 0.494527 20.6017 0 21.426 0C22.2503 0 23.0021 0.494527 23.3614 1.27313L28.8234 12.8284L41.0808 14.7016C41.8927 14.8227 42.5683 15.4179 42.8226 16.2362C43.0551 17.035 42.8483 17.9032 42.285 18.4931L33.4253 27.5206L35.5757 40.2269C35.7325 41.0908 35.3968 41.9716 34.7155 42.4837C34.3261 42.7701 33.8573 42.913 33.3823 42.89Z" fill="#FFAA00"/>
</svg>
