<svg width="25" height="24" viewBox="0 0 25 24" fill="none" xmlns="http://www.w3.org/2000/svg">
<g clip-path="url(#clip0_687_4401)">
<g clip-path="url(#clip1_687_4401)">
<path d="M12.9995 17L6.49951 13.5L5.49951 18L12.9995 22.5L20.4995 18.5L19.9995 13L12.9995 17Z" fill="#094E85"/>
<path d="M25.0003 10.42C25.0008 10.0942 24.915 9.77403 24.7516 9.49212C24.5883 9.21021 24.3532 8.97658 24.0703 8.81499L13.9603 2.81499C13.6689 2.645 13.3376 2.55542 13.0003 2.55542C12.6629 2.55542 12.3316 2.645 12.0403 2.81499L1.91527 8.81499C1.63548 8.98101 1.4037 9.21698 1.24271 9.49969C1.08172 9.78241 0.99707 10.1022 0.99707 10.4275C0.99707 10.7528 1.08172 11.0726 1.24271 11.3553C1.4037 11.638 1.63548 11.874 1.91527 12.04L4.79527 13.72V17.935C4.797 18.2644 4.88346 18.5878 5.04633 18.8742C5.20921 19.1605 5.44301 19.4001 5.72527 19.57L12.1003 23.245C12.3849 23.4026 12.7049 23.4853 13.0303 23.4853C13.3556 23.4853 13.6756 23.4026 13.9603 23.245L20.3353 19.57C20.6175 19.4001 20.8513 19.1605 21.0142 18.8742C21.1771 18.5878 21.2635 18.2644 21.2653 17.935V13.675L23.1253 12.58V16.66H25.0003V10.42ZM19.4053 17.92L13.0003 21.61L6.67027 17.935V14.83L12.0403 18.025C12.3326 18.1921 12.6635 18.2799 13.0003 18.2799C13.337 18.2799 13.6679 18.1921 13.9603 18.025L19.3903 14.785L19.4053 17.92ZM13.0003 16.405L2.87527 10.405L13.0003 4.38999L23.1253 10.39L13.0003 16.405Z" fill="#094E85"/>
</g>
</g>
<defs>
<clipPath id="clip0_687_4401">
<rect width="24" height="24" fill="white" transform="translate(0.719238)"/>
</clipPath>
<clipPath id="clip1_687_4401">
<rect width="24" height="24" fill="white" transform="translate(1.00049 1)"/>
</clipPath>
</defs>
</svg>
