<svg width="24" height="23" viewBox="0 0 24 23" fill="none" xmlns="http://www.w3.org/2000/svg">
<g clip-path="url(#clip0_687_4089)">
<path d="M24.0008 9.41999C24.0013 9.09417 23.9155 8.77403 23.7521 8.49212C23.5888 8.21021 23.3537 7.97658 23.0708 7.81499L12.9608 1.81499C12.6694 1.645 12.3381 1.55542 12.0008 1.55542C11.6634 1.55542 11.3321 1.645 11.0408 1.81499L0.915757 7.81499C0.635965 7.98101 0.404185 8.21698 0.243199 8.49969C0.082212 8.78241 -0.00244141 9.10215 -0.00244141 9.42749C-0.00244141 9.75283 0.082212 10.0726 0.243199 10.3553C0.404185 10.638 0.635965 10.874 0.915757 11.04L3.79576 12.72V16.935C3.79749 17.2644 3.88395 17.5878 4.04682 17.8742C4.2097 18.1605 4.4435 18.4001 4.72576 18.57L11.1008 22.245C11.3854 22.4026 11.7054 22.4853 12.0308 22.4853C12.3561 22.4853 12.6761 22.4026 12.9608 22.245L19.3358 18.57C19.618 18.4001 19.8518 18.1605 20.0147 17.8742C20.1776 17.5878 20.264 17.2644 20.2658 16.935V12.675L22.1258 11.58V15.66H24.0008V9.41999ZM18.4058 16.92L12.0008 20.61L5.67076 16.935V13.83L11.0408 17.025C11.3331 17.1921 11.664 17.2799 12.0008 17.2799C12.3375 17.2799 12.6684 17.1921 12.9608 17.025L18.3908 13.785L18.4058 16.92ZM12.0008 15.405L1.87576 9.40499L12.0008 3.38999L22.1258 9.39L12.0008 15.405Z" fill="#878787"/>
</g>
<defs>
<clipPath id="clip0_687_4089">
<rect width="24" height="24" fill="white" transform="translate(0.000732422)"/>
</clipPath>
</defs>
</svg>
