<svg width="28" height="28" viewBox="0 0 28 28" fill="none" xmlns="http://www.w3.org/2000/svg">
<path d="M22.6247 2.54023H6.10924C5.79234 2.54023 5.53389 2.79869 5.53389 3.11559V21.8832C5.53389 22.2001 5.79234 22.4585 6.10924 22.4585H8.67289C8.98979 22.4585 9.24824 22.2001 9.24824 21.8832C9.24824 21.5663 8.98979 21.3078 8.67289 21.3078H6.68459V3.69094H22.0493V21.3078H20.061C19.7441 21.3078 19.4857 21.5663 19.4857 21.8832C19.4857 22.2001 19.7441 22.4585 20.061 22.4585H22.6247C22.9416 22.4585 23.2 22.2001 23.2 21.8832V3.11559C23.2 2.79869 22.9416 2.54023 22.6247 2.54023Z" fill="#094E85" stroke="#094E85" stroke-width="0.4"/>
<path d="M18.2259 14.9797C16.4047 15.1117 14.6959 14.0585 14.6767 14.0495C14.5707 13.9835 14.4293 13.9835 14.3233 14.0495C14.3041 14.0585 12.5921 15.1117 10.7741 14.9797C10.6328 14.9707 10.5011 15.0457 10.4497 15.1687C10.4047 15.2737 9.40899 17.7131 10.5332 19.9905C11.2109 21.3647 12.5086 22.3729 14.394 22.982C14.4293 22.994 14.4647 23 14.5 23C14.5353 23 14.5707 22.994 14.606 22.982C16.4914 22.3729 17.7891 21.3647 18.4668 19.9905C19.591 17.7131 18.5953 15.2737 18.5503 15.1687C18.4989 15.0457 18.3672 14.9707 18.2259 14.9797ZM16.6681 17.4971L14.4197 19.8975C14.3587 19.9635 14.2687 19.9995 14.1788 19.9995C14.1113 19.9995 14.0439 19.9785 13.9861 19.9395L12.7013 19.0393C12.56 18.9403 12.531 18.7513 12.637 18.6193C12.743 18.4872 12.9454 18.4602 13.0867 18.5593L14.1338 19.2914L16.1863 17.101C16.3019 16.975 16.5043 16.963 16.6392 17.074C16.7709 17.182 16.7869 17.3711 16.6681 17.4971Z" fill="#094E85"/>
<path d="M8.73668 12.5987H19.9972C20.2589 12.5987 20.4726 12.3851 20.4726 12.1234C20.4726 11.8617 20.2589 11.648 19.9972 11.648H8.73668C8.47501 11.648 8.26133 11.8617 8.26133 12.1234C8.26133 12.3851 8.47501 12.5987 8.73668 12.5987Z" fill="#094E85" stroke="#094E85" stroke-width="0.2"/>
<path d="M8.73668 10.3839H19.9972C20.2589 10.3839 20.4726 10.1702 20.4726 9.90855C20.4726 9.64688 20.2589 9.4332 19.9972 9.4332H8.73668C8.47501 9.4332 8.26133 9.64688 8.26133 9.90855C8.26133 10.1702 8.47501 10.3839 8.73668 10.3839Z" fill="#094E85" stroke="#094E85" stroke-width="0.2"/>
<path d="M8.73668 8.16906H19.9972C20.2589 8.16906 20.4726 7.95538 20.4726 7.69371C20.4726 7.43204 20.2589 7.21836 19.9972 7.21836H8.73668C8.47501 7.21836 8.26133 7.43204 8.26133 7.69371C8.26133 7.95538 8.47501 8.16906 8.73668 8.16906Z" fill="#094E85" stroke="#094E85" stroke-width="0.2"/>
<path d="M8.73668 5.95617H19.9972C20.2589 5.95617 20.4726 5.74249 20.4726 5.48082C20.4726 5.21915 20.2589 5.00547 19.9972 5.00547H8.73668C8.47501 5.00547 8.26133 5.21915 8.26133 5.48082C8.26133 5.74249 8.47501 5.95617 8.73668 5.95617Z" fill="#094E85" stroke="#094E85" stroke-width="0.2"/>
</svg>
