<svg width="337" height="134" viewBox="0 0 337 134" fill="none" xmlns="http://www.w3.org/2000/svg">
<rect width="337" height="134" rx="10" fill="url(#paint0_linear_3249_1466)"/>
<mask id="mask0_3249_1466" style="mask-type:alpha" maskUnits="userSpaceOnUse" x="0" y="0" width="337" height="134">
<rect width="337" height="134" rx="10" fill="#FFE600"/>
</mask>
<g mask="url(#mask0_3249_1466)">
<path d="M178 141.658C178 170.1 275.624 154.157 306 154.157C336.376 154.157 352 120.101 352 91.6581C352 63.2154 315.376 123.158 285 123.158C254.624 123.158 178 113.215 178 141.658Z" fill="#002B4D"/>
</g>
<mask id="mask1_3249_1466" style="mask-type:alpha" maskUnits="userSpaceOnUse" x="0" y="0" width="337" height="134">
<rect width="337" height="134" rx="10" fill="url(#paint1_linear_3249_1466)"/>
</mask>
<g mask="url(#mask1_3249_1466)">
<circle cx="339.5" cy="64.5" r="13.5" fill="white"/>
<circle cx="-2.5" cy="64.5" r="13.5" fill="white"/>
<circle cx="99.5" cy="-0.5" r="10.5" fill="white"/>
<circle cx="99.5" cy="134.5" r="10.5" fill="white"/>
</g>
<line x1="99.0001" y1="132.985" x2="100" y2="-0.0213036" stroke="white" stroke-width="4" stroke-dasharray="10 10"/>
<defs>
<linearGradient id="paint0_linear_3249_1466" x1="168.5" y1="0" x2="168.5" y2="134" gradientUnits="userSpaceOnUse">
<stop stop-color="#4B80AC"/>
<stop offset="1" stop-color="#112A50"/>
</linearGradient>
<linearGradient id="paint1_linear_3249_1466" x1="168.5" y1="0" x2="168.5" y2="134" gradientUnits="userSpaceOnUse">
<stop stop-color="#4B80AC"/>
<stop offset="1" stop-color="#112A50"/>
</linearGradient>
</defs>
</svg>
