<svg width="24" height="24" viewBox="0 0 24 24" fill="none" xmlns="http://www.w3.org/2000/svg">
<path fill-rule="evenodd" clip-rule="evenodd" d="M1 10.5C1 7.71523 2.10625 5.04451 4.07538 3.07538C6.04451 1.10625 8.71523 0 11.5 0C14.2848 0 16.9555 1.10625 18.9246 3.07538C20.8938 5.04451 22 7.71523 22 10.5C22 13.2848 20.8938 15.9555 18.9246 17.9246C16.9555 19.8938 14.2848 21 11.5 21C8.71523 21 6.04451 19.8938 4.07538 17.9246C2.10625 15.9555 1 13.2848 1 10.5ZM10.9008 14.994L16.946 7.4368L15.854 6.5632L10.6992 13.0046L7.048 9.9624L6.152 11.0376L10.9008 14.994Z" fill="white"/>
</svg>
