<svg width="24" height="24" viewBox="0 0 24 24" fill="none" xmlns="http://www.w3.org/2000/svg">
<g clip-path="url(#clip0_6303_5458)">
<path fill-rule="evenodd" clip-rule="evenodd" d="M1 11.5C1 8.71523 2.10625 6.04451 4.07538 4.07538C6.04451 2.10625 8.71523 1 11.5 1C14.2848 1 16.9555 2.10625 18.9246 4.07538C20.8938 6.04451 22 8.71523 22 11.5C22 14.2848 20.8938 16.9555 18.9246 18.9246C16.9555 20.8938 14.2848 22 11.5 22C8.71523 22 6.04451 20.8938 4.07538 18.9246C2.10625 16.9555 1 14.2848 1 11.5ZM10.9008 15.994L16.946 8.4368L15.854 7.5632L10.6992 14.0046L7.048 10.9624L6.152 12.0376L10.9008 15.994Z" fill="#CDCDCD"/>
</g>
<defs>
<clipPath id="clip0_6303_5458">
<rect width="24" height="24" fill="white"/>
</clipPath>
</defs>
</svg>
