<svg width="18" height="19" viewBox="0 0 18 19" fill="none" xmlns="http://www.w3.org/2000/svg">
<path d="M-0.0078125 1.93188C-0.0078125 1.38324 0.437138 0.938477 0.985588 0.938477H16.9988C17.5474 0.938477 17.9922 1.38343 17.9922 1.93188V17.9451C17.9922 18.4937 17.5473 18.9385 16.9988 18.9385H0.985588C0.436948 18.9385 -0.0078125 18.4936 -0.0078125 17.9451V1.93188ZM1.99219 2.93848V16.9385H15.9922V2.93848H1.99219ZM7.61409 6.35307L12.493 9.60568C12.6768 9.72818 12.7265 9.97658 12.6039 10.1604C12.5746 10.2043 12.5369 10.242 12.493 10.2713L7.61409 13.5239C7.43029 13.6465 7.18189 13.5968 7.05939 13.413C7.01559 13.3473 6.99219 13.2701 6.99219 13.1911V6.68589C6.99219 6.46497 7.17129 6.28589 7.39219 6.28589C7.47119 6.28589 7.54839 6.30926 7.61409 6.35307Z" fill="#094E85"/>
</svg>
